<svg width="0" height="0" class="hidden">
    <symbol id="logo" viewBox="0 0 36 36" xmlns="http://www.w3.org/2000/svg">
        <path d="M6.00182 29.8661C5.97036 30.4163 5.89843 30.9502 5.76119 31.498C5.65534 31.9212 5.71641 33.1372 5.34761 33.3935C4.58696 33.9213 3.04334 33.5211 2.16598 33.5574C0.612094 33.6221 0.605995 36.0406 2.16598 35.9759C3.68059 35.913 5.40563 36.2891 6.73949 35.3628C7.60473 34.7624 7.84655 33.7514 7.9887 32.7671C8.04374 32.3844 8.10838 32.0101 8.17309 31.6377C10.9671 33.5622 14.3513 34.6917 18.0003 34.6917C21.6311 34.6917 25.0002 33.5743 27.7857 31.6673C27.7869 31.8741 27.7857 32.0808 27.7979 32.2882C27.8559 33.2581 28.3614 33.9963 29.1946 34.4686C30.6179 35.2758 32.4246 34.9977 33.9851 35.0696C35.5451 35.1415 35.5378 32.723 33.9851 32.6511C32.9633 32.6039 31.9269 32.7182 30.916 32.5241C30.2013 32.3869 30.1843 32.2659 30.2055 31.5628C30.2249 30.9097 30.2527 30.2725 30.2461 29.6291C33.3956 26.4886 35.3456 22.145 35.3456 17.3459C35.3456 13.8191 34.2905 10.5408 32.4826 7.80238C32.6525 7.61255 32.7674 7.35734 32.7758 7.02908C32.8199 5.37537 34.048 3.0197 31.6881 2.31476C30.7672 2.03961 29.8567 2.12129 28.9165 2.23554C28.2103 2.32079 27.4944 2.36311 26.7778 2.38729C24.2021 0.872526 21.2036 0 17.9997 0C14.9771 0 12.1359 0.774562 9.66115 2.13438C7.78674 1.85023 5.91055 1.52004 4.03622 2.0086C3.51925 2.14345 3.14562 2.64287 3.14859 3.17494C3.15707 4.52271 3.89593 5.70653 3.90441 7.02953C3.90501 7.09603 3.91527 7.15531 3.92375 7.21579C1.86919 10.0666 0.654419 13.5638 0.654419 17.3459C0.654419 22.2688 2.70839 26.7087 6.00182 29.8661ZM22.5998 4.90363C23.4305 4.90363 24.1035 5.57718 24.1035 6.40738C24.1035 7.23758 23.43 7.91172 22.5998 7.91172C21.769 7.91172 21.0954 7.23817 21.0954 6.40738C21.0954 5.57658 21.769 4.90363 22.5998 4.90363ZM11.9406 4.90363C12.7714 4.90363 13.4449 5.57718 13.4449 6.40738C13.4449 7.23758 12.7714 7.91172 11.9406 7.91172C11.1098 7.91172 10.4368 7.23817 10.4368 6.40738C10.4368 5.57658 11.1099 4.90363 11.9406 4.90363ZM6.45713 10.2256L8.91195 20.3944L16.6725 10.5387C17.0528 10.5502 17.4355 10.5587 17.8231 10.5587C18.5855 10.5587 19.3341 10.5333 20.0657 10.4934L25.1429 18.5731L30.119 10.5006C31.7805 11.1669 32.7565 12.6761 32.7565 15.8226C32.7565 21.8539 29.1788 27.0465 24.031 29.4034L17.9997 22.4477L13.3125 30.0614C7.26977 28.1489 2.88981 22.498 2.88981 15.8228C2.88981 12.1284 4.23386 10.6906 6.45713 10.2256Z"/>
    </symbol>
    <symbol id="cards" viewBox="0 0 24 24" xmlns="http://www.w3.org/2000/svg">
        <path d="M17.4039 4.72204L20.1215 14.8643C20.5146 16.3313 19.644 17.8392 18.1769 18.2323L11.8984 19.9146C10.4314 20.3077 8.92346 19.4371 8.53037 17.9701L5.81277 7.82786C5.41968 6.36083 6.29029 4.85291 7.75732 4.45982L14.0358 2.77749C15.5029 2.3844 17.0108 3.255 17.4039 4.72204ZM10.9659 7.74118C10.823 7.20771 10.2746 6.89113 9.74118 7.03407C9.20772 7.17701 8.89113 7.72535 9.03407 8.25881C9.17702 8.79228 9.72535 9.10886 10.2588 8.96592C10.7923 8.82298 11.1089 8.27464 10.9659 7.74118ZM5.80276 11.658L7.56445 18.2289C7.74542 18.9043 8.09966 19.487 8.56653 19.9419L8.12368 19.9181C6.60698 19.8386 5.44189 18.5447 5.52137 17.028L5.80276 11.658ZM4.87817 10.1798L4.52275 16.9756C4.48613 17.6743 4.6432 18.3384 4.94701 18.9156L4.53261 18.755C3.1147 18.2107 2.40649 16.62 2.95078 15.2021L4.87817 10.1798Z"/>
    </symbol>
    <symbol id="star" viewBox="0 0 25 23" xmlns="http://www.w3.org/2000/svg">
        <path d="M12.5 0L15.3064 8.63729H24.3882L17.0409 13.9754L19.8473 22.6127L12.5 17.2746L5.15268 22.6127L7.95911 13.9754L0.611794 8.63729H9.69357L12.5 0Z" />
    </symbol>

    <symbol id="github" viewBox="0 0 21 20" xmlns="http://www.w3.org/2000/svg">
        <g clip-path="url(#clip0_4_911)">
            <path fill-rule="evenodd" clip-rule="evenodd" d="M10.5 0C4.97664 0 0.5 4.39871 0.5 9.82591C0.5 14.1665 3.36445 17.85 7.33878 19.1504C7.83908 19.239 8.01955 18.9366 8.01955 18.6765C8.01955 18.443 8.01153 17.8244 8.00852 17.0057C5.22629 17.5988 4.63876 15.6876 4.63876 15.6876C4.18558 14.5527 3.52887 14.2502 3.52887 14.2502C2.62152 13.6404 3.59806 13.6542 3.59806 13.6542C4.60267 13.7232 5.12904 14.667 5.12904 14.667C6.02136 16.1683 7.47112 15.7349 8.0386 15.4836C8.12984 14.8482 8.39052 14.4148 8.67526 14.1695C6.45548 13.9222 4.12142 13.0789 4.12142 9.31265C4.12142 8.24179 4.51143 7.36303 5.14809 6.67737C5.04682 6.42812 4.70092 5.42819 5.24734 4.07656C5.24734 4.07656 6.08652 3.81156 7.99649 5.0824C8.81221 4.86436 9.65364 4.75306 10.499 4.75139C11.3444 4.75274 12.1859 4.86404 13.0015 5.0824C14.9125 3.81057 15.7507 4.07656 15.7507 4.07656C16.2971 5.42819 15.9542 6.42812 15.8499 6.67737C16.4916 7.36303 16.8766 8.2408 16.8766 9.31265C16.8766 13.0887 14.5405 13.9182 12.3127 14.1616C12.6686 14.465 12.9895 15.064 12.9895 15.9802C12.9895 17.2944 12.9774 18.3544 12.9774 18.6765C12.9774 18.9396 13.1559 19.245 13.6662 19.1484C17.6386 17.846 20.5 14.1655 20.5 9.82591C20.5 4.39871 16.0234 0 10.5 0Z" />
        </g>
        <defs>
            <clipPath id="clip0_4_911">
                <rect width="20" height="20" transform="translate(0.5)"/>
            </clipPath>
        </defs>
    </symbol>
    <symbol id="vk" viewBox="0 0 21 20" xmlns="http://www.w3.org/2000/svg">
        <g clip-path="url(#clip0_4_913)">
            <path fill-rule="evenodd" clip-rule="evenodd" d="M7.43333 0H13.5667C19.1667 0 20.5 1.33333 20.5 6.93333V13.0667C20.5 18.6667 19.1667 20 13.5667 20H7.43333C1.83333 20 0.5 18.6667 0.5 13.0667V6.93333C0.5 1.33333 1.83333 0 7.43333 0Z" fill="black" />
            <path fill-rule="evenodd" clip-rule="evenodd" d="M16.8785 6.89023C16.9712 6.58122 16.8785 6.35416 16.4375 6.35416H14.9792C14.6084 6.35416 14.4374 6.55031 14.3447 6.7666C14.3447 6.7666 13.6031 8.57426 12.5525 9.74846C12.2126 10.0883 12.0581 10.1965 11.8727 10.1965C11.78 10.1965 11.6458 10.0883 11.6458 9.77937V6.89023C11.6458 6.51942 11.5382 6.35416 11.2292 6.35416H8.93753C8.70581 6.35416 8.56645 6.52626 8.56645 6.68937C8.56645 7.04089 9.09172 7.12195 9.14586 8.11077V10.2583C9.14586 10.7292 9.06083 10.8145 8.87543 10.8145C8.38104 10.8145 7.17846 8.99879 6.46521 6.92112C6.32543 6.51729 6.18524 6.35416 5.81253 6.35416H4.35419C3.93752 6.35416 3.85419 6.55031 3.85419 6.7666C3.85419 7.15286 4.34859 9.06867 6.15623 11.6025C7.36131 13.3328 9.05919 14.2708 10.6042 14.2708C11.5312 14.2708 11.6459 14.0625 11.6459 13.7036V12.3958C11.6459 11.9792 11.7337 11.896 12.0272 11.896C12.2435 11.896 12.6143 12.0042 13.4795 12.8385C14.4683 13.8272 14.6313 14.2708 15.1875 14.2708H16.6459C17.0625 14.2708 17.2709 14.0625 17.1507 13.6514C17.0192 13.2416 16.5471 12.6471 15.9206 11.9424C15.5807 11.5407 15.0709 11.1081 14.9164 10.8917C14.7001 10.6137 14.7619 10.49 14.9164 10.2429C14.9164 10.2429 16.6931 7.73996 16.8785 6.89023Z" fill="white"/>
        </g>
        <defs>
            <clipPath id="clip0_4_913">
                <rect width="20" height="20" transform="translate(0.5)"/>
            </clipPath>
        </defs>
    </symbol>

    <symbol id="ribbon-1" xmlns="http://www.w3.org/2000/svg" viewBox="0 0 22 14">

        <path d="M8.0236 1.2913C7.92033 1.11058 7.73433 1 7.5336 1H2.00925C1.56508 1 1.29073 1.50878 1.51926 1.9087L7.69068 12.7087C7.79395 12.8894 7.97996 13 8.18068 13H13.705C14.1492 13 14.4236 12.4912 14.195 12.0913L8.0236 1.2913Z" fill="#C52229"></path>
        <path fill-rule="evenodd" clip-rule="evenodd" d="M7.5336 0.399994H2.00925C1.12091 0.399994 0.572212 1.41756 1.02926 2.21739L7.20069 13.0174C7.40723 13.3788 7.77923 13.6 8.18068 13.6H13.705C14.5934 13.6 15.1421 12.5824 14.685 11.7826L8.5136 0.982599C8.30706 0.621153 7.93505 0.399994 7.5336 0.399994ZM7.5336 0.999994C7.73433 0.999994 7.92033 1.11057 8.0236 1.2913L14.195 12.0913C14.4236 12.4912 14.1492 13 13.705 13H8.18068C7.97996 13 7.79395 12.8894 7.69068 12.7087L1.51925 1.90869C1.29073 1.50878 1.56508 0.999994 2.00925 0.999994H7.5336Z" fill="#9B0F15"></path>
        <path d="M13.9764 1.2913C14.0797 1.11058 14.2657 1 14.4664 1H19.9907C20.4349 1 20.7093 1.50878 20.4807 1.9087L14.3093 12.7087C14.206 12.8894 14.02 13 13.8193 13H8.29497C7.8508 13 7.57645 12.4912 7.80497 12.0913L13.9764 1.2913Z" fill="#F1333B"></path>
        <path fill-rule="evenodd" clip-rule="evenodd" d="M14.4664 0.399994H19.9907C20.8791 0.399994 21.4278 1.41756 20.9707 2.21739L14.7993 13.0174C14.5928 13.3788 14.2208 13.6 13.8193 13.6H8.29497C7.40663 13.6 6.85793 12.5824 7.31498 11.7826L13.4864 0.982599C13.6929 0.621153 14.065 0.399994 14.4664 0.399994ZM14.4664 0.999994C14.2657 0.999994 14.0797 1.11057 13.9764 1.2913L7.80497 12.0913C7.57645 12.4912 7.8508 13 8.29497 13H13.8193C14.02 13 14.206 12.8894 14.3093 12.7087L20.4807 1.90869C20.7093 1.50878 20.4349 0.999994 19.9907 0.999994H14.4664Z" fill="#9B0F15"></path>
        <path fill-rule="evenodd" clip-rule="evenodd" d="M14.572 1.34057C14.7085 1.42377 14.7549 1.60736 14.6757 1.75065L12.1042 6.40065C12.025 6.54393 11.8501 6.59264 11.7137 6.50944C11.5772 6.42625 11.5308 6.24265 11.6101 6.09936L14.1815 1.44937C14.2607 1.30608 14.4356 1.25737 14.572 1.34057Z" fill="#FE666D"></path>
        <path fill-rule="evenodd" clip-rule="evenodd" d="M1.99939 1.34057C1.86293 1.42377 1.81654 1.60736 1.89577 1.75065L4.4672 6.40065C4.54644 6.54393 4.72129 6.59264 4.85775 6.50944C4.99421 6.42625 5.0406 6.24265 4.96137 6.09936L2.38994 1.44937C2.3107 1.30608 2.13585 1.25737 1.99939 1.34057Z" fill="#DF3840"></path>
        <path d="M7.42856 1.98438C7.42856 2.19667 7.26867 2.36876 7.07142 2.36876C6.87418 2.36876 6.71428 2.19667 6.71428 1.98438C6.71428 1.7721 6.87418 1.60001 7.07142 1.60001C7.26867 1.60001 7.42856 1.7721 7.42856 1.98438Z" fill="#AA161D"></path>
        <path d="M6.17421 2.07813C6.17421 2.34219 5.97531 2.55626 5.72996 2.55626C5.4846 2.55626 5.28571 2.34219 5.28571 2.07813C5.28571 1.81407 5.4846 1.60001 5.72996 1.60001C5.97531 1.60001 6.17421 1.81407 6.17421 2.07813Z" fill="#AA161D"></path>
        <path d="M7.28572 3.44687C7.28572 3.71094 7.08682 3.925 6.84147 3.925C6.59611 3.925 6.39722 3.71094 6.39722 3.44687C6.39722 3.18281 6.59611 2.96875 6.84147 2.96875C7.08682 2.96875 7.28572 3.18281 7.28572 3.44687Z" fill="#AA161D"></path>
        <path d="M8.3014 2.79532C8.3014 2.92735 8.20195 3.03438 8.07927 3.03438C7.9566 3.03438 7.85715 2.92735 7.85715 2.79532C7.85715 2.66329 7.9566 2.55626 8.07927 2.55626C8.20195 2.55626 8.3014 2.66329 8.3014 2.79532Z" fill="#AA161D"></path>
        <path d="M5.95209 3.20781C5.95209 3.33984 5.85264 3.44688 5.72997 3.44688C5.60729 3.44688 5.50784 3.33984 5.50784 3.20781C5.50784 3.07578 5.60729 2.96875 5.72997 2.96875C5.85264 2.96875 5.95209 3.07578 5.95209 3.20781Z" fill="#AA161D"></path>
        <path d="M4.71429 1.74532C4.71429 1.87735 4.61484 1.98438 4.49216 1.98438C4.36948 1.98438 4.27003 1.87735 4.27003 1.74532C4.27003 1.61329 4.36948 1.50626 4.49216 1.50626C4.61484 1.50626 4.71429 1.61329 4.71429 1.74532Z" fill="#AA161D"></path>
        <path d="M8.07926 4.46407C8.07926 4.5961 7.97981 4.70313 7.85714 4.70313C7.73446 4.70313 7.63501 4.5961 7.63501 4.46407C7.63501 4.33204 7.73446 4.22501 7.85714 4.22501C7.97981 4.22501 8.07926 4.33204 8.07926 4.46407Z" fill="#AA161D"></path>
        <path d="M6.93641 4.70313C6.93641 4.83516 6.83696 4.94219 6.71428 4.94219C6.59161 4.94219 6.49216 4.83516 6.49216 4.70313C6.49216 4.5711 6.59161 4.46407 6.71428 4.46407C6.83696 4.46407 6.93641 4.5711 6.93641 4.70313Z" fill="#AA161D"></path>
        <path d="M9.15157 3.83595C9.15157 4.05082 8.98972 4.22501 8.79007 4.22501C8.59042 4.22501 8.42857 4.05082 8.42857 3.83595C8.42857 3.62107 8.59042 3.44688 8.79007 3.44688C8.98972 3.44688 9.15157 3.62107 9.15157 3.83595Z" fill="#AA161D"></path>
        <path d="M9.62282 4.94219C9.62282 5.07422 9.52338 5.18125 9.4007 5.18125C9.27802 5.18125 9.17857 5.07422 9.17857 4.94219C9.17857 4.81016 9.27802 4.70312 9.4007 4.70312C9.52338 4.70312 9.62282 4.81016 9.62282 4.94219Z" fill="#AA161D"></path>
    </symbol>
    <symbol id="ribbon-2" xmlns="http://www.w3.org/2000/svg" viewBox="0 0 22 14">
        <path d="M8.0236 1.2913C7.92033 1.11058 7.73433 1 7.5336 1H2.00925C1.56508 1 1.29073 1.50878 1.51926 1.9087L7.69068 12.7087C7.79395 12.8894 7.97996 13 8.18068 13H13.705C14.1492 13 14.4236 12.4912 14.195 12.0913L8.0236 1.2913Z" fill="#0355B6"></path>
        <path fill-rule="evenodd" clip-rule="evenodd" d="M7.5336 0.399994H2.00925C1.12091 0.399994 0.572214 1.41756 1.02926 2.21739L7.20069 13.0174C7.40723 13.3788 7.77924 13.6 8.18068 13.6H13.705C14.5934 13.6 15.1421 12.5824 14.685 11.7826L8.5136 0.982599C8.30706 0.621153 7.93505 0.399994 7.5336 0.399994ZM7.5336 0.999994C7.73433 0.999994 7.92033 1.11057 8.0236 1.2913L14.195 12.0913C14.4236 12.4912 14.1492 13 13.705 13H8.18068C7.97996 13 7.79395 12.8894 7.69068 12.7087L1.51926 1.90869C1.29073 1.50878 1.56508 0.999994 2.00925 0.999994H7.5336Z" fill="#023E84"></path>
        <path d="M13.9764 1.2913C14.0797 1.11058 14.2657 1 14.4664 1H19.9907C20.4349 1 20.7093 1.50878 20.4807 1.9087L14.3093 12.7087C14.206 12.8894 14.02 13 13.8193 13H8.29497C7.8508 13 7.57645 12.4912 7.80497 12.0913L13.9764 1.2913Z" fill="#086FE9"></path>
        <path fill-rule="evenodd" clip-rule="evenodd" d="M14.4664 0.399994H19.9907C20.8791 0.399994 21.4278 1.41756 20.9707 2.21739L14.7993 13.0174C14.5928 13.3788 14.2208 13.6 13.8193 13.6H8.29497C7.40663 13.6 6.85793 12.5824 7.31498 11.7826L13.4864 0.982599C13.6929 0.621153 14.065 0.399994 14.4664 0.399994ZM14.4664 0.999994C14.2657 0.999994 14.0797 1.11057 13.9764 1.2913L7.80497 12.0913C7.57645 12.4912 7.8508 13 8.29497 13H13.8193C14.02 13 14.206 12.8894 14.3093 12.7087L20.4807 1.90869C20.7093 1.50878 20.4349 0.999994 19.9907 0.999994H14.4664Z" fill="#023E84"></path>
        <path fill-rule="evenodd" clip-rule="evenodd" d="M14.572 1.34057C14.7085 1.42377 14.7549 1.60736 14.6757 1.75065L12.1042 6.40065C12.025 6.54393 11.8501 6.59264 11.7137 6.50944C11.5772 6.42625 11.5308 6.24265 11.6101 6.09937L14.1815 1.44937C14.2607 1.30608 14.4356 1.25737 14.572 1.34057Z" fill="#3D96FF"></path>
        <path fill-rule="evenodd" clip-rule="evenodd" d="M1.99939 1.34057C1.86293 1.42377 1.81654 1.60736 1.89577 1.75065L4.4672 6.40065C4.54644 6.54393 4.72129 6.59264 4.85775 6.50944C4.99421 6.42625 5.0406 6.24265 4.96137 6.09937L2.38994 1.44937C2.3107 1.30608 2.13585 1.25737 1.99939 1.34057Z" fill="#1871DA"></path>
        <path d="M7.42856 1.98438C7.42856 2.19667 7.26867 2.36876 7.07142 2.36876C6.87418 2.36876 6.71428 2.19667 6.71428 1.98438C6.71428 1.7721 6.87418 1.60001 7.07142 1.60001C7.26867 1.60001 7.42856 1.7721 7.42856 1.98438Z" fill="#034592"></path>
        <path d="M6.17421 2.07813C6.17421 2.34219 5.97531 2.55626 5.72996 2.55626C5.4846 2.55626 5.28571 2.34219 5.28571 2.07813C5.28571 1.81407 5.4846 1.60001 5.72996 1.60001C5.97531 1.60001 6.17421 1.81407 6.17421 2.07813Z" fill="#034592"></path>
        <path d="M7.28572 3.44687C7.28572 3.71094 7.08682 3.925 6.84147 3.925C6.59611 3.925 6.39722 3.71094 6.39722 3.44687C6.39722 3.18281 6.59611 2.96875 6.84147 2.96875C7.08682 2.96875 7.28572 3.18281 7.28572 3.44687Z" fill="#034592"></path>
        <path d="M8.3014 2.79532C8.3014 2.92735 8.20195 3.03438 8.07927 3.03438C7.9566 3.03438 7.85715 2.92735 7.85715 2.79532C7.85715 2.66329 7.9566 2.55626 8.07927 2.55626C8.20195 2.55626 8.3014 2.66329 8.3014 2.79532Z" fill="#034592"></path>
        <path d="M5.95209 3.20781C5.95209 3.33984 5.85265 3.44688 5.72997 3.44688C5.60729 3.44688 5.50784 3.33984 5.50784 3.20781C5.50784 3.07578 5.60729 2.96875 5.72997 2.96875C5.85265 2.96875 5.95209 3.07578 5.95209 3.20781Z" fill="#034592"></path>
        <path d="M4.71429 1.74532C4.71429 1.87735 4.61484 1.98438 4.49216 1.98438C4.36948 1.98438 4.27003 1.87735 4.27003 1.74532C4.27003 1.61329 4.36948 1.50626 4.49216 1.50626C4.61484 1.50626 4.71429 1.61329 4.71429 1.74532Z" fill="#034592"></path>
        <path d="M8.07926 4.46407C8.07926 4.5961 7.97981 4.70313 7.85713 4.70313C7.73446 4.70313 7.63501 4.5961 7.63501 4.46407C7.63501 4.33204 7.73446 4.22501 7.85713 4.22501C7.97981 4.22501 8.07926 4.33204 8.07926 4.46407Z" fill="#034592"></path>
        <path d="M6.93641 4.70313C6.93641 4.83516 6.83696 4.94219 6.71428 4.94219C6.59161 4.94219 6.49216 4.83516 6.49216 4.70313C6.49216 4.5711 6.59161 4.46407 6.71428 4.46407C6.83696 4.46407 6.93641 4.5711 6.93641 4.70313Z" fill="#034592"></path>
        <path d="M9.15157 3.83595C9.15157 4.05082 8.98972 4.22501 8.79007 4.22501C8.59042 4.22501 8.42857 4.05082 8.42857 3.83595C8.42857 3.62107 8.59042 3.44688 8.79007 3.44688C8.98972 3.44688 9.15157 3.62107 9.15157 3.83595Z" fill="#034592"></path>
        <path d="M9.62282 4.94219C9.62282 5.07422 9.52337 5.18125 9.4007 5.18125C9.27802 5.18125 9.17857 5.07422 9.17857 4.94219C9.17857 4.81016 9.27802 4.70312 9.4007 4.70312C9.52337 4.70312 9.62282 4.81016 9.62282 4.94219Z" fill="#034592"></path>
    </symbol>
    <symbol id="ribbon-3" xmlns="http://www.w3.org/2000/svg" viewBox="0 0 22 14">
        <path d="M8.0236 1.2913C7.92033 1.11058 7.73433 1 7.5336 1H2.00925C1.56508 1 1.29073 1.50878 1.51926 1.9087L7.69068 12.7087C7.79395 12.8894 7.97996 13 8.18068 13H13.705C14.1492 13 14.4236 12.4912 14.195 12.0913L8.0236 1.2913Z" fill="#0355B6"></path>
        <path fill-rule="evenodd" clip-rule="evenodd" d="M7.5336 0.399994H2.00925C1.12091 0.399994 0.572212 1.41756 1.02926 2.21739L7.20069 13.0174C7.40723 13.3788 7.77923 13.6 8.18068 13.6H13.705C14.5934 13.6 15.1421 12.5824 14.685 11.7826L8.5136 0.982599C8.30706 0.621153 7.93505 0.399994 7.5336 0.399994ZM7.5336 0.999994C7.73433 0.999994 7.92033 1.11057 8.0236 1.2913L14.195 12.0913C14.4236 12.4912 14.1492 13 13.705 13H8.18068C7.97996 13 7.79395 12.8894 7.69068 12.7087L1.51925 1.90869C1.29073 1.50878 1.56508 0.999994 2.00925 0.999994H7.5336Z" fill="#023E84"></path>
        <path fill-rule="evenodd" clip-rule="evenodd" d="M1.99939 1.34055C1.86293 1.42375 1.81654 1.60735 1.89577 1.75063L4.4672 6.40063C4.54644 6.54391 4.72129 6.59262 4.85775 6.50943C4.99421 6.42623 5.0406 6.24263 4.96137 6.09935L2.38994 1.44935C2.3107 1.30607 2.13585 1.25736 1.99939 1.34055Z" fill="#1871DA"></path>
        <path d="M7.42858 1.98437C7.42858 2.19665 7.26868 2.36874 7.07144 2.36874C6.87419 2.36874 6.71429 2.19665 6.71429 1.98437C6.71429 1.77208 6.87419 1.59999 7.07144 1.59999C7.26868 1.59999 7.42858 1.77208 7.42858 1.98437Z" fill="#034592"></path>
        <path d="M6.17422 2.07812C6.17422 2.34218 5.97532 2.55624 5.72997 2.55624C5.48462 2.55624 5.28572 2.34218 5.28572 2.07812C5.28572 1.81405 5.48462 1.59999 5.72997 1.59999C5.97532 1.59999 6.17422 1.81405 6.17422 2.07812Z" fill="#034592"></path>
        <path d="M7.28573 3.44686C7.28573 3.71092 7.08683 3.92498 6.84148 3.92498C6.59612 3.92498 6.39722 3.71092 6.39722 3.44686C6.39722 3.1828 6.59612 2.96873 6.84148 2.96873C7.08683 2.96873 7.28573 3.1828 7.28573 3.44686Z" fill="#034592"></path>
        <path d="M8.3014 2.79531C8.3014 2.92734 8.20195 3.03437 8.07927 3.03437C7.9566 3.03437 7.85715 2.92734 7.85715 2.79531C7.85715 2.66328 7.9566 2.55624 8.07927 2.55624C8.20195 2.55624 8.3014 2.66328 8.3014 2.79531Z" fill="#034592"></path>
        <path d="M5.95209 3.2078C5.95209 3.33983 5.85265 3.44686 5.72997 3.44686C5.60729 3.44686 5.50784 3.33983 5.50784 3.2078C5.50784 3.07577 5.60729 2.96873 5.72997 2.96873C5.85265 2.96873 5.95209 3.07577 5.95209 3.2078Z" fill="#034592"></path>
        <path d="M4.71429 1.7453C4.71429 1.87733 4.61484 1.98437 4.49217 1.98437C4.36949 1.98437 4.27004 1.87733 4.27004 1.7453C4.27004 1.61327 4.36949 1.50624 4.49217 1.50624C4.61484 1.50624 4.71429 1.61327 4.71429 1.7453Z" fill="#034592"></path>
        <path d="M8.07928 4.46405C8.07928 4.59608 7.97983 4.70312 7.85715 4.70312C7.73447 4.70312 7.63503 4.59608 7.63503 4.46405C7.63503 4.33202 7.73447 4.22499 7.85715 4.22499C7.97983 4.22499 8.07928 4.33202 8.07928 4.46405Z" fill="#034592"></path>
        <path d="M6.93642 4.70311C6.93642 4.83514 6.83697 4.94217 6.71429 4.94217C6.59161 4.94217 6.49216 4.83514 6.49216 4.70311C6.49216 4.57108 6.59161 4.46405 6.71429 4.46405C6.83697 4.46405 6.93642 4.57108 6.93642 4.70311Z" fill="#034592"></path>
        <path d="M9.15157 3.83593C9.15157 4.0508 8.98972 4.22499 8.79007 4.22499C8.59042 4.22499 8.42857 4.0508 8.42857 3.83593C8.42857 3.62106 8.59042 3.44687 8.79007 3.44687C8.98972 3.44687 9.15157 3.62106 9.15157 3.83593Z" fill="#034592"></path>
        <path d="M9.62282 4.94217C9.62282 5.0742 9.52337 5.18123 9.4007 5.18123C9.27802 5.18123 9.17857 5.0742 9.17857 4.94217C9.17857 4.81014 9.27802 4.70311 9.4007 4.70311C9.52337 4.70311 9.62282 4.81014 9.62282 4.94217Z" fill="#034592"></path>
        <path d="M13.9764 1.2913C14.0797 1.11058 14.2657 1 14.4664 1H19.9907C20.4349 1 20.7093 1.50878 20.4807 1.9087L14.3093 12.7087C14.206 12.8894 14.02 13 13.8193 13H8.29497C7.8508 13 7.57645 12.4912 7.80497 12.0913L13.9764 1.2913Z" fill="#F1333B"></path>
        <path fill-rule="evenodd" clip-rule="evenodd" d="M14.4664 0.399994H19.9907C20.8791 0.399994 21.4278 1.41756 20.9707 2.21739L14.7993 13.0174C14.5928 13.3788 14.2208 13.6 13.8193 13.6H8.29497C7.40663 13.6 6.85793 12.5824 7.31498 11.7826L13.4864 0.982599C13.6929 0.621153 14.065 0.399994 14.4664 0.399994ZM14.4664 0.999994C14.2657 0.999994 14.0797 1.11057 13.9764 1.2913L7.80497 12.0913C7.57645 12.4912 7.8508 13 8.29497 13H13.8193C14.02 13 14.206 12.8894 14.3093 12.7087L20.4807 1.90869C20.7093 1.50878 20.4349 0.999994 19.9907 0.999994H14.4664Z" fill="#9B0F15"></path>
        <path fill-rule="evenodd" clip-rule="evenodd" d="M14.572 1.34057C14.7085 1.42377 14.7549 1.60736 14.6757 1.75065L12.1042 6.40065C12.025 6.54393 11.8501 6.59264 11.7137 6.50944C11.5772 6.42625 11.5308 6.24265 11.6101 6.09937L14.1815 1.44937C14.2607 1.30608 14.4356 1.25737 14.572 1.34057Z" fill="#FE666D"></path>
    </symbol>
    <symbol id="ribbon-4" xmlns="http://www.w3.org/2000/svg" viewBox="0 0 22 14">
        <path d="M8.0236 1.2913C7.92033 1.11058 7.73433 1 7.53361 1H2.00925C1.56509 1 1.29074 1.50878 1.51926 1.9087L7.69069 12.7087C7.79396 12.8894 7.97996 13 8.18068 13H13.705C14.1492 13 14.4236 12.4912 14.195 12.0913L8.0236 1.2913Z" fill="#348304"></path>
        <path fill-rule="evenodd" clip-rule="evenodd" d="M7.53361 0.399994H2.00925C1.12092 0.399994 0.572216 1.41756 1.02926 2.21739L7.20069 13.0174C7.40723 13.3788 7.77924 13.6 8.18068 13.6H13.705C14.5934 13.6 15.1421 12.5824 14.685 11.7826L8.5136 0.982599C8.30706 0.621153 7.93505 0.399994 7.53361 0.399994ZM7.53361 0.999994C7.73433 0.999994 7.92033 1.11057 8.0236 1.2913L14.195 12.0913C14.4236 12.4912 14.1492 13 13.705 13H8.18068C7.97996 13 7.79396 12.8894 7.69069 12.7087L1.51926 1.90869C1.29074 1.50878 1.56509 0.999994 2.00925 0.999994H7.53361Z" fill="#245E01"></path>
        <path d="M13.9764 1.2913C14.0797 1.11058 14.2657 1 14.4664 1H19.9907C20.4349 1 20.7093 1.50878 20.4807 1.9087L14.3093 12.7087C14.206 12.8894 14.02 13 13.8193 13H8.29497C7.8508 13 7.57645 12.4912 7.80497 12.0913L13.9764 1.2913Z" fill="#47B405"></path>
        <path fill-rule="evenodd" clip-rule="evenodd" d="M14.4664 0.399994H19.9907C20.8791 0.399994 21.4278 1.41756 20.9707 2.21739L14.7993 13.0174C14.5928 13.3788 14.2208 13.6 13.8193 13.6H8.29497C7.40663 13.6 6.85793 12.5824 7.31498 11.7826L13.4864 0.982599C13.6929 0.621153 14.065 0.399994 14.4664 0.399994ZM14.4664 0.999994C14.2657 0.999994 14.0797 1.11057 13.9764 1.2913L7.80497 12.0913C7.57645 12.4912 7.8508 13 8.29497 13H13.8193C14.02 13 14.206 12.8894 14.3093 12.7087L20.4807 1.90869C20.7093 1.50878 20.4349 0.999994 19.9907 0.999994H14.4664Z" fill="#245E01"></path>
        <path fill-rule="evenodd" clip-rule="evenodd" d="M14.572 1.34055C14.7085 1.42375 14.7549 1.60735 14.6757 1.75063L12.1042 6.40063C12.025 6.54391 11.8501 6.59262 11.7137 6.50943C11.5772 6.42623 11.5308 6.24263 11.6101 6.09935L14.1815 1.44935C14.2607 1.30607 14.4356 1.25736 14.572 1.34055Z" fill="#64D91D"></path>
        <path fill-rule="evenodd" clip-rule="evenodd" d="M1.99939 1.34055C1.86293 1.42375 1.81654 1.60735 1.89577 1.75063L4.4672 6.40063C4.54644 6.54391 4.72129 6.59262 4.85775 6.50943C4.99421 6.42623 5.0406 6.24263 4.96137 6.09935L2.38994 1.44935C2.3107 1.30607 2.13585 1.25736 1.99939 1.34055Z" fill="#49A411"></path>
        <path d="M7.42858 1.98437C7.42858 2.19665 7.26868 2.36874 7.07144 2.36874C6.87419 2.36874 6.71429 2.19665 6.71429 1.98437C6.71429 1.77208 6.87419 1.59999 7.07144 1.59999C7.26868 1.59999 7.42858 1.77208 7.42858 1.98437Z" fill="#2A6A02"></path>
        <path d="M6.17422 2.07812C6.17422 2.34218 5.97532 2.55624 5.72997 2.55624C5.48462 2.55624 5.28572 2.34218 5.28572 2.07812C5.28572 1.81405 5.48462 1.59999 5.72997 1.59999C5.97532 1.59999 6.17422 1.81405 6.17422 2.07812Z" fill="#2A6A02"></path>
        <path d="M7.28573 3.44686C7.28573 3.71092 7.08683 3.92498 6.84148 3.92498C6.59612 3.92498 6.39722 3.71092 6.39722 3.44686C6.39722 3.1828 6.59612 2.96873 6.84148 2.96873C7.08683 2.96873 7.28573 3.1828 7.28573 3.44686Z" fill="#2A6A02"></path>
        <path d="M8.3014 2.79531C8.3014 2.92734 8.20195 3.03437 8.07927 3.03437C7.9566 3.03437 7.85715 2.92734 7.85715 2.79531C7.85715 2.66328 7.9566 2.55624 8.07927 2.55624C8.20195 2.55624 8.3014 2.66328 8.3014 2.79531Z" fill="#2A6A02"></path>
        <path d="M5.95209 3.2078C5.95209 3.33983 5.85265 3.44686 5.72997 3.44686C5.60729 3.44686 5.50784 3.33983 5.50784 3.2078C5.50784 3.07577 5.60729 2.96873 5.72997 2.96873C5.85265 2.96873 5.95209 3.07577 5.95209 3.2078Z" fill="#2A6A02"></path>
        <path d="M4.71429 1.7453C4.71429 1.87733 4.61484 1.98437 4.49217 1.98437C4.36949 1.98437 4.27004 1.87733 4.27004 1.7453C4.27004 1.61327 4.36949 1.50624 4.49217 1.50624C4.61484 1.50624 4.71429 1.61327 4.71429 1.7453Z" fill="#2A6A02"></path>
        <path d="M8.07928 4.46405C8.07928 4.59608 7.97983 4.70312 7.85715 4.70312C7.73447 4.70312 7.63503 4.59608 7.63503 4.46405C7.63503 4.33202 7.73447 4.22499 7.85715 4.22499C7.97983 4.22499 8.07928 4.33202 8.07928 4.46405Z" fill="#2A6A02"></path>
        <path d="M6.93642 4.70311C6.93642 4.83514 6.83697 4.94217 6.71429 4.94217C6.59161 4.94217 6.49216 4.83514 6.49216 4.70311C6.49216 4.57108 6.59161 4.46405 6.71429 4.46405C6.83697 4.46405 6.93642 4.57108 6.93642 4.70311Z" fill="#2A6A02"></path>
        <path d="M9.15157 3.83593C9.15157 4.0508 8.98972 4.22499 8.79007 4.22499C8.59042 4.22499 8.42857 4.0508 8.42857 3.83593C8.42857 3.62106 8.59042 3.44687 8.79007 3.44687C8.98972 3.44687 9.15157 3.62106 9.15157 3.83593Z" fill="#2A6A02"></path>
        <path d="M9.62283 4.94217C9.62283 5.0742 9.52338 5.18123 9.4007 5.18123C9.27803 5.18123 9.17858 5.0742 9.17858 4.94217C9.17858 4.81014 9.27803 4.70311 9.4007 4.70311C9.52338 4.70311 9.62283 4.81014 9.62283 4.94217Z" fill="#2A6A02"></path>
    </symbol>
    <symbol id="ribbon-5" xmlns="http://www.w3.org/2000/svg" viewBox="0 0 22 14">
        <path d="M8.0236 1.2913C7.92033 1.11058 7.73433 1 7.53361 1H2.00925C1.56508 1 1.29073 1.50878 1.51926 1.9087L7.69068 12.7087C7.79395 12.8894 7.97996 13 8.18068 13H13.705C14.1492 13 14.4236 12.4912 14.195 12.0913L8.0236 1.2913Z" fill="#800CDB"></path>
        <path fill-rule="evenodd" clip-rule="evenodd" d="M7.53361 0.399994H2.00925C1.12092 0.399994 0.572214 1.41756 1.02926 2.21739L7.20069 13.0174C7.40723 13.3788 7.77924 13.6 8.18068 13.6H13.705C14.5934 13.6 15.1421 12.5824 14.685 11.7826L8.5136 0.982599C8.30706 0.621153 7.93505 0.399994 7.53361 0.399994ZM7.53361 0.999994C7.73433 0.999994 7.92033 1.11057 8.0236 1.2913L14.195 12.0913C14.4236 12.4912 14.1492 13 13.705 13H8.18068C7.97996 13 7.79395 12.8894 7.69068 12.7087L1.51926 1.90869C1.29073 1.50878 1.56508 0.999994 2.00925 0.999994H7.53361Z" fill="#6303AF"></path>
        <path d="M13.9764 1.2913C14.0797 1.11058 14.2657 1 14.4664 1H19.9907C20.4349 1 20.7093 1.50878 20.4807 1.9087L14.3093 12.7087C14.206 12.8894 14.02 13 13.8193 13H8.29497C7.8508 13 7.57645 12.4912 7.80497 12.0913L13.9764 1.2913Z" fill="#9B2EF0"></path>
        <path fill-rule="evenodd" clip-rule="evenodd" d="M14.4664 0.399994H19.9907C20.8791 0.399994 21.4278 1.41756 20.9707 2.21739L14.7993 13.0174C14.5928 13.3788 14.2208 13.6 13.8193 13.6H8.29497C7.40663 13.6 6.85793 12.5824 7.31498 11.7826L13.4864 0.982599C13.6929 0.621153 14.065 0.399994 14.4664 0.399994ZM14.4664 0.999994C14.2657 0.999994 14.0797 1.11057 13.9764 1.2913L7.80497 12.0913C7.57645 12.4912 7.8508 13 8.29497 13H13.8193C14.02 13 14.206 12.8894 14.3093 12.7087L20.4807 1.90869C20.7093 1.50878 20.4349 0.999994 19.9907 0.999994H14.4664Z" fill="#6303AF"></path>
        <path fill-rule="evenodd" clip-rule="evenodd" d="M14.572 1.34055C14.7085 1.42375 14.7549 1.60735 14.6757 1.75063L12.1042 6.40063C12.025 6.54391 11.8501 6.59262 11.7137 6.50943C11.5772 6.42623 11.5308 6.24263 11.6101 6.09935L14.1815 1.44935C14.2607 1.30607 14.4356 1.25736 14.572 1.34055Z" fill="#B860FE"></path>
        <path fill-rule="evenodd" clip-rule="evenodd" d="M1.99939 1.34055C1.86293 1.42375 1.81654 1.60735 1.89578 1.75063L4.4672 6.40063C4.54644 6.54391 4.72129 6.59262 4.85775 6.50943C4.99421 6.42623 5.0406 6.24263 4.96137 6.09935L2.38994 1.44935C2.31071 1.30607 2.13585 1.25736 1.99939 1.34055Z" fill="#9A1CFD"></path>
        <path d="M7.42857 1.98437C7.42857 2.19665 7.26867 2.36874 7.07143 2.36874C6.87418 2.36874 6.71428 2.19665 6.71428 1.98437C6.71428 1.77208 6.87418 1.59999 7.07143 1.59999C7.26867 1.59999 7.42857 1.77208 7.42857 1.98437Z" fill="#6804B7"></path>
        <path d="M6.17421 2.07812C6.17421 2.34218 5.97532 2.55624 5.72996 2.55624C5.48461 2.55624 5.28571 2.34218 5.28571 2.07812C5.28571 1.81405 5.48461 1.59999 5.72996 1.59999C5.97532 1.59999 6.17421 1.81405 6.17421 2.07812Z" fill="#6804B7"></path>
        <path d="M7.28572 3.44686C7.28572 3.71092 7.08682 3.92498 6.84147 3.92498C6.59611 3.92498 6.39722 3.71092 6.39722 3.44686C6.39722 3.1828 6.59611 2.96873 6.84147 2.96873C7.08682 2.96873 7.28572 3.1828 7.28572 3.44686Z" fill="#6804B7"></path>
        <path d="M8.30139 2.79531C8.30139 2.92734 8.20195 3.03437 8.07927 3.03437C7.95659 3.03437 7.85714 2.92734 7.85714 2.79531C7.85714 2.66328 7.95659 2.55624 8.07927 2.55624C8.20195 2.55624 8.30139 2.66328 8.30139 2.79531Z" fill="#6804B7"></path>
        <path d="M5.95209 3.2078C5.95209 3.33983 5.85264 3.44686 5.72996 3.44686C5.60729 3.44686 5.50784 3.33983 5.50784 3.2078C5.50784 3.07577 5.60729 2.96873 5.72996 2.96873C5.85264 2.96873 5.95209 3.07577 5.95209 3.2078Z" fill="#6804B7"></path>
        <path d="M4.71429 1.7453C4.71429 1.87733 4.61484 1.98437 4.49216 1.98437C4.36949 1.98437 4.27004 1.87733 4.27004 1.7453C4.27004 1.61327 4.36949 1.50624 4.49216 1.50624C4.61484 1.50624 4.71429 1.61327 4.71429 1.7453Z" fill="#6804B7"></path>
        <path d="M8.07927 4.46405C8.07927 4.59608 7.97982 4.70312 7.85714 4.70312C7.73447 4.70312 7.63502 4.59608 7.63502 4.46405C7.63502 4.33202 7.73447 4.22499 7.85714 4.22499C7.97982 4.22499 8.07927 4.33202 8.07927 4.46405Z" fill="#6804B7"></path>
        <path d="M6.93641 4.70311C6.93641 4.83514 6.83696 4.94217 6.71429 4.94217C6.59161 4.94217 6.49216 4.83514 6.49216 4.70311C6.49216 4.57108 6.59161 4.46405 6.71429 4.46405C6.83696 4.46405 6.93641 4.57108 6.93641 4.70311Z" fill="#6804B7"></path>
        <path d="M9.15157 3.83593C9.15157 4.0508 8.98972 4.22499 8.79007 4.22499C8.59042 4.22499 8.42857 4.0508 8.42857 3.83593C8.42857 3.62106 8.59042 3.44687 8.79007 3.44687C8.98972 3.44687 9.15157 3.62106 9.15157 3.83593Z" fill="#6804B7"></path>
        <path d="M9.62282 4.94217C9.62282 5.0742 9.52337 5.18123 9.4007 5.18123C9.27802 5.18123 9.17857 5.0742 9.17857 4.94217C9.17857 4.81014 9.27802 4.70311 9.4007 4.70311C9.52337 4.70311 9.62282 4.81014 9.62282 4.94217Z" fill="#6804B7"></path>
    </symbol>
    <symbol id="ribbon-6" xmlns="http://www.w3.org/2000/svg" viewBox="0 0 22 14">
        <path d="M8.0236 1.2913C7.92033 1.11058 7.73433 1 7.5336 1H2.00925C1.56508 1 1.29073 1.50878 1.51926 1.9087L7.69068 12.7087C7.79395 12.8894 7.97996 13 8.18068 13H13.705C14.1492 13 14.4236 12.4912 14.195 12.0913L8.0236 1.2913Z" fill="#383634"></path>
        <path fill-rule="evenodd" clip-rule="evenodd" d="M7.5336 0.399994H2.00925C1.12091 0.399994 0.572212 1.41756 1.02926 2.21739L7.20069 13.0174C7.40723 13.3788 7.77923 13.6 8.18068 13.6H13.705C14.5934 13.6 15.1421 12.5824 14.685 11.7826L8.5136 0.982599C8.30706 0.621153 7.93505 0.399994 7.5336 0.399994ZM7.5336 0.999994C7.73433 0.999994 7.92033 1.11057 8.0236 1.2913L14.195 12.0913C14.4236 12.4912 14.1492 13 13.705 13H8.18068C7.97996 13 7.79395 12.8894 7.69068 12.7087L1.51925 1.90869C1.29073 1.50878 1.56508 0.999994 2.00925 0.999994H7.5336Z" fill="#171716"></path>
        <path d="M13.9764 1.2913C14.0797 1.11058 14.2657 1 14.4664 1H19.9907C20.4349 1 20.7093 1.50878 20.4807 1.9087L14.3093 12.7087C14.206 12.8894 14.02 13 13.8193 13H8.29497C7.8508 13 7.57645 12.4912 7.80497 12.0913L13.9764 1.2913Z" fill="#565452"></path>
        <path fill-rule="evenodd" clip-rule="evenodd" d="M14.4664 0.399994H19.9907C20.8791 0.399994 21.4278 1.41756 20.9707 2.21739L14.7993 13.0174C14.5928 13.3788 14.2208 13.6 13.8193 13.6H8.29497C7.40663 13.6 6.85793 12.5824 7.31498 11.7826L13.4864 0.982599C13.6929 0.621153 14.065 0.399994 14.4664 0.399994ZM14.4664 0.999994C14.2657 0.999994 14.0797 1.11057 13.9764 1.2913L7.80497 12.0913C7.57645 12.4912 7.8508 13 8.29497 13H13.8193C14.02 13 14.206 12.8894 14.3093 12.7087L20.4807 1.90869C20.7093 1.50878 20.4349 0.999994 19.9907 0.999994H14.4664Z" fill="#171716"></path>
        <path fill-rule="evenodd" clip-rule="evenodd" d="M14.572 1.34055C14.7085 1.42375 14.7549 1.60735 14.6757 1.75063L12.1042 6.40063C12.025 6.54391 11.8501 6.59262 11.7137 6.50943C11.5772 6.42623 11.5308 6.24263 11.6101 6.09935L14.1815 1.44935C14.2607 1.30607 14.4356 1.25736 14.572 1.34055Z" fill="#8A8886"></path>
        <path fill-rule="evenodd" clip-rule="evenodd" d="M1.99939 1.34055C1.86293 1.42375 1.81654 1.60735 1.89578 1.75063L4.4672 6.40063C4.54644 6.54391 4.72129 6.59262 4.85775 6.50943C4.99421 6.42623 5.0406 6.24263 4.96137 6.09935L2.38994 1.44935C2.31071 1.30607 2.13585 1.25736 1.99939 1.34055Z" fill="#5A5857"></path>
        <path d="M7.42857 1.98437C7.42857 2.19665 7.26867 2.36874 7.07143 2.36874C6.87418 2.36874 6.71428 2.19665 6.71428 1.98437C6.71428 1.77208 6.87418 1.59999 7.07143 1.59999C7.26867 1.59999 7.42857 1.77208 7.42857 1.98437Z" fill="#252323"></path>
        <path d="M6.17421 2.07812C6.17421 2.34218 5.97532 2.55624 5.72996 2.55624C5.48461 2.55624 5.28571 2.34218 5.28571 2.07812C5.28571 1.81405 5.48461 1.59999 5.72996 1.59999C5.97532 1.59999 6.17421 1.81405 6.17421 2.07812Z" fill="#252323"></path>
        <path d="M7.28572 3.44686C7.28572 3.71092 7.08682 3.92498 6.84147 3.92498C6.59611 3.92498 6.39722 3.71092 6.39722 3.44686C6.39722 3.1828 6.59611 2.96873 6.84147 2.96873C7.08682 2.96873 7.28572 3.1828 7.28572 3.44686Z" fill="#252323"></path>
        <path d="M8.30139 2.79531C8.30139 2.92734 8.20195 3.03437 8.07927 3.03437C7.95659 3.03437 7.85714 2.92734 7.85714 2.79531C7.85714 2.66328 7.95659 2.55624 8.07927 2.55624C8.20195 2.55624 8.30139 2.66328 8.30139 2.79531Z" fill="#252323"></path>
        <path d="M5.95209 3.2078C5.95209 3.33983 5.85264 3.44686 5.72996 3.44686C5.60729 3.44686 5.50784 3.33983 5.50784 3.2078C5.50784 3.07577 5.60729 2.96873 5.72996 2.96873C5.85264 2.96873 5.95209 3.07577 5.95209 3.2078Z" fill="#252323"></path>
        <path d="M4.71429 1.7453C4.71429 1.87733 4.61484 1.98437 4.49216 1.98437C4.36949 1.98437 4.27004 1.87733 4.27004 1.7453C4.27004 1.61327 4.36949 1.50624 4.49216 1.50624C4.61484 1.50624 4.71429 1.61327 4.71429 1.7453Z" fill="#252323"></path>
        <path d="M8.07927 4.46405C8.07927 4.59608 7.97982 4.70312 7.85714 4.70312C7.73447 4.70312 7.63502 4.59608 7.63502 4.46405C7.63502 4.33202 7.73447 4.22499 7.85714 4.22499C7.97982 4.22499 8.07927 4.33202 8.07927 4.46405Z" fill="#252323"></path>
        <path d="M6.93641 4.70311C6.93641 4.83514 6.83696 4.94217 6.71429 4.94217C6.59161 4.94217 6.49216 4.83514 6.49216 4.70311C6.49216 4.57108 6.59161 4.46405 6.71429 4.46405C6.83696 4.46405 6.93641 4.57108 6.93641 4.70311Z" fill="#252323"></path>
        <path d="M9.15157 3.83593C9.15157 4.0508 8.98972 4.22499 8.79007 4.22499C8.59042 4.22499 8.42857 4.0508 8.42857 3.83593C8.42857 3.62106 8.59042 3.44687 8.79007 3.44687C8.98972 3.44687 9.15157 3.62106 9.15157 3.83593Z" fill="#252323"></path>
        <path d="M9.62282 4.94217C9.62282 5.0742 9.52337 5.18123 9.4007 5.18123C9.27802 5.18123 9.17857 5.0742 9.17857 4.94217C9.17857 4.81014 9.27802 4.70311 9.4007 4.70311C9.52337 4.70311 9.62282 4.81014 9.62282 4.94217Z" fill="#252323"></path>
    </symbol>

    <symbol id="medal-1" xmlns="http://www.w3.org/2000/svg" viewBox="0 0 20 20">
        <path d="M7.8297 1.86897C7.7544 1.74346 7.61877 1.66667 7.47241 1.66667H3.44424C3.12037 1.66667 2.92032 2.01999 3.08695 2.29771L7.58695 9.79771C7.66225 9.92321 7.79788 10 7.94424 10H11.9724C12.2963 10 12.4963 9.64668 12.3297 9.36896L7.8297 1.86897Z" fill="#C52229"></path>
        <path fill-rule="evenodd" clip-rule="evenodd" d="M7.47242 1.25H3.44424C2.7965 1.25 2.3964 1.95664 2.72967 2.51208L7.22967 10.0121C7.38027 10.2631 7.65152 10.4167 7.94424 10.4167H11.9724C12.6202 10.4167 13.0203 9.71002 12.687 9.15459L8.187 1.65459C8.03639 1.40358 7.76514 1.25 7.47242 1.25ZM7.47242 1.66667C7.61878 1.66667 7.7544 1.74346 7.82971 1.86896L12.3297 9.36896C12.4963 9.64668 12.2963 10 11.9724 10H7.94424C7.79788 10 7.66226 9.92321 7.58695 9.79771L3.08695 2.29771C2.92032 2.01999 3.12037 1.66667 3.44424 1.66667H7.47242Z" fill="#9B0F15"></path>
        <path d="M12.1703 1.86897C12.2456 1.74346 12.3812 1.66667 12.5276 1.66667H16.5557C16.8796 1.66667 17.0797 2.01999 16.913 2.29771L12.413 9.79771C12.3377 9.92321 12.2021 10 12.0557 10H8.02757C7.7037 10 7.50365 9.64668 7.67028 9.36896L12.1703 1.86897Z" fill="#F1333B"></path>
        <path fill-rule="evenodd" clip-rule="evenodd" d="M12.5276 1.25H16.5557C17.2035 1.25 17.6036 1.95664 17.2703 2.51208L12.7703 10.0121C12.6197 10.2631 12.3485 10.4167 12.0557 10.4167H8.02757C7.37982 10.4167 6.97973 9.71002 7.31299 9.15459L11.813 1.65459C11.9636 1.40358 12.2348 1.25 12.5276 1.25ZM12.5276 1.66667C12.3812 1.66667 12.2456 1.74346 12.1703 1.86896L7.67028 9.36896C7.50365 9.64668 7.70369 10 8.02757 10H12.0557C12.2021 10 12.3377 9.92321 12.413 9.79771L16.913 2.29771C17.0797 2.01999 16.8796 1.66667 16.5557 1.66667H12.5276Z" fill="#9B0F15"></path>
        <path fill-rule="evenodd" clip-rule="evenodd" d="M12.6046 1.90317C12.7041 1.96095 12.7379 2.08845 12.6802 2.18795L10.8052 5.41711C10.7474 5.51662 10.6199 5.55044 10.5204 5.49267C10.4209 5.43489 10.3871 5.30739 10.4448 5.20789L12.3198 1.97873C12.3776 1.87922 12.5051 1.8454 12.6046 1.90317Z" fill="#FE666D"></path>
        <path fill-rule="evenodd" clip-rule="evenodd" d="M3.43705 1.90317C3.33755 1.96095 3.30372 2.08845 3.3615 2.18795L5.2365 5.41711C5.29427 5.51662 5.42177 5.55044 5.52127 5.49267C5.62078 5.43489 5.6546 5.30739 5.59683 5.20789L3.72183 1.97873C3.66405 1.87922 3.53655 1.8454 3.43705 1.90317Z" fill="#DF3840"></path>
        <path d="M7.39583 2.35027C7.39583 2.49769 7.27924 2.6172 7.13542 2.6172C6.99159 2.6172 6.875 2.49769 6.875 2.35027C6.875 2.20285 6.99159 2.08334 7.13542 2.08334C7.27924 2.08334 7.39583 2.20285 7.39583 2.35027Z" fill="#AA161D"></path>
        <path d="M6.48119 2.41537C6.48119 2.59875 6.33616 2.74741 6.15726 2.74741C5.97836 2.74741 5.83333 2.59875 5.83333 2.41537C5.83333 2.232 5.97836 2.08334 6.15726 2.08334C6.33616 2.08334 6.48119 2.232 6.48119 2.41537Z" fill="#AA161D"></path>
        <path d="M7.29167 3.36589C7.29167 3.54927 7.14664 3.69792 6.96773 3.69792C6.78883 3.69792 6.6438 3.54927 6.6438 3.36589C6.6438 3.18251 6.78883 3.03386 6.96773 3.03386C7.14664 3.03386 7.29167 3.18251 7.29167 3.36589Z" fill="#AA161D"></path>
        <path d="M8.03226 2.91342C8.03226 3.00511 7.95975 3.07944 7.8703 3.07944C7.78084 3.07944 7.70833 3.00511 7.70833 2.91342C7.70833 2.82173 7.78084 2.74741 7.8703 2.74741C7.95975 2.74741 8.03226 2.82173 8.03226 2.91342Z" fill="#AA161D"></path>
        <path d="M6.31922 3.19987C6.31922 3.29156 6.2467 3.36589 6.15725 3.36589C6.0678 3.36589 5.99529 3.29156 5.99529 3.19987C5.99529 3.10819 6.0678 3.03386 6.15725 3.03386C6.2467 3.03386 6.31922 3.10819 6.31922 3.19987Z" fill="#AA161D"></path>
        <path d="M5.41666 2.18425C5.41666 2.27594 5.34415 2.35027 5.25469 2.35027C5.16524 2.35027 5.09273 2.27594 5.09273 2.18425C5.09273 2.09256 5.16524 2.01823 5.25469 2.01823C5.34415 2.01823 5.41666 2.09256 5.41666 2.18425Z" fill="#AA161D"></path>
        <path d="M7.87029 4.07227C7.87029 4.16395 7.79777 4.23828 7.70832 4.23828C7.61887 4.23828 7.54636 4.16395 7.54636 4.07227C7.54636 3.98058 7.61887 3.90625 7.70832 3.90625C7.79777 3.90625 7.87029 3.98058 7.87029 4.07227Z" fill="#AA161D"></path>
        <path d="M7.03696 4.23828C7.03696 4.32997 6.96445 4.4043 6.87499 4.4043C6.78554 4.4043 6.71303 4.32997 6.71303 4.23828C6.71303 4.14659 6.78554 4.07227 6.87499 4.07227C6.96445 4.07227 7.03696 4.14659 7.03696 4.23828Z" fill="#AA161D"></path>
        <path d="M8.65218 3.63607C8.65218 3.78529 8.53417 3.90625 8.38859 3.90625C8.24301 3.90625 8.125 3.78529 8.125 3.63607C8.125 3.48686 8.24301 3.36589 8.38859 3.36589C8.53417 3.36589 8.65218 3.48686 8.65218 3.63607Z" fill="#AA161D"></path>
        <path d="M8.99579 4.4043C8.99579 4.49598 8.92328 4.57031 8.83383 4.57031C8.74437 4.57031 8.67186 4.49598 8.67186 4.4043C8.67186 4.31261 8.74437 4.23828 8.83383 4.23828C8.92328 4.23828 8.99579 4.31261 8.99579 4.4043Z" fill="#AA161D"></path>
        <path d="M15.625 12.7083C15.625 15.8149 13.1066 18.3333 10 18.3333C6.8934 18.3333 4.375 15.8149 4.375 12.7083C4.375 9.60174 6.8934 7.08334 10 7.08334C13.1066 7.08334 15.625 9.60174 15.625 12.7083Z" fill="#FFBB0D"></path>
        <path fill-rule="evenodd" clip-rule="evenodd" d="M16.0417 12.7083C16.0417 16.0451 13.3367 18.75 9.99999 18.75C6.66327 18.75 3.95833 16.0451 3.95833 12.7083C3.95833 9.37162 6.66327 6.66667 9.99999 6.66667C13.3367 6.66667 16.0417 9.37162 16.0417 12.7083ZM9.99999 18.3333C13.1066 18.3333 15.625 15.8149 15.625 12.7083C15.625 9.60174 13.1066 7.08334 9.99999 7.08334C6.89339 7.08334 4.37499 9.60174 4.37499 12.7083C4.37499 15.8149 6.89339 18.3333 9.99999 18.3333Z" fill="#E89B05"></path>
        <path fill-rule="evenodd" clip-rule="evenodd" d="M4.79166 12.9167C4.6766 12.9167 4.58333 12.8234 4.58333 12.7083C4.58333 9.7168 7.00845 7.29167 10 7.29167C10.1151 7.29167 10.2083 7.38495 10.2083 7.50001C10.2083 7.61506 10.1151 7.70834 10 7.70834C7.23857 7.70834 4.99999 9.94691 4.99999 12.7083C4.99999 12.8234 4.90672 12.9167 4.79166 12.9167Z" fill="#E8AA0A"></path>
        <path fill-rule="evenodd" clip-rule="evenodd" d="M15.2083 12.5C15.3234 12.5 15.4167 12.5933 15.4167 12.7083C15.4167 15.6999 12.9915 18.125 9.99999 18.125C9.88493 18.125 9.79166 18.0317 9.79166 17.9167C9.79166 17.8016 9.88493 17.7083 9.99999 17.7083C12.7614 17.7083 15 15.4698 15 12.7083C15 12.5933 15.0933 12.5 15.2083 12.5Z" fill="#E8AA0A"></path>
        <path d="M14.1667 12.7083C14.1667 15.0095 12.3012 16.875 10 16.875C7.69881 16.875 5.83333 15.0095 5.83333 12.7083C5.83333 10.4072 7.69881 8.54167 10 8.54167C12.3012 8.54167 14.1667 10.4072 14.1667 12.7083Z" fill="#FFDD28"></path>
        <path fill-rule="evenodd" clip-rule="evenodd" d="M14.5833 12.7083C14.5833 15.2396 12.5313 17.2917 9.99999 17.2917C7.46868 17.2917 5.41666 15.2396 5.41666 12.7083C5.41666 10.177 7.46868 8.125 9.99999 8.125C12.5313 8.125 14.5833 10.177 14.5833 12.7083ZM9.99999 16.875C12.3012 16.875 14.1667 15.0095 14.1667 12.7083C14.1667 10.4071 12.3012 8.54167 9.99999 8.54167C7.6988 8.54167 5.83332 10.4071 5.83332 12.7083C5.83332 15.0095 7.6988 16.875 9.99999 16.875Z" fill="#E89B05"></path>
        <path fill-rule="evenodd" clip-rule="evenodd" d="M9.99999 16.25C11.956 16.25 13.5417 14.6643 13.5417 12.7083C13.5417 12.5933 13.6349 12.5 13.75 12.5C13.8651 12.5 13.9583 12.5933 13.9583 12.7083C13.9583 14.8945 12.1861 16.6667 9.99999 16.6667C9.88493 16.6667 9.79166 16.5734 9.79166 16.4583C9.79166 16.3433 9.88493 16.25 9.99999 16.25Z" fill="#ECC704"></path>
        <path fill-rule="evenodd" clip-rule="evenodd" d="M9.99999 9.16667C8.04398 9.16667 6.45832 10.7523 6.45832 12.7083C6.45832 12.8234 6.36505 12.9167 6.24999 12.9167C6.13493 12.9167 6.04166 12.8234 6.04166 12.7083C6.04166 10.5222 7.81386 8.75 9.99999 8.75C10.115 8.75 10.2083 8.84327 10.2083 8.95833C10.2083 9.07339 10.115 9.16667 9.99999 9.16667Z" fill="#FFEF9C"></path>
    </symbol>
    <symbol id="medal-2" xmlns="http://www.w3.org/2000/svg" viewBox="0 0 20 20">
        <path d="M7.8297 1.86897C7.7544 1.74346 7.61877 1.66667 7.47241 1.66667H3.44424C3.12037 1.66667 2.92032 2.01999 3.08695 2.29771L7.58695 9.79771C7.66225 9.92321 7.79788 10 7.94424 10H11.9724C12.2963 10 12.4963 9.64668 12.3297 9.36897L7.8297 1.86897Z" fill="#0355B6"></path>
        <path fill-rule="evenodd" clip-rule="evenodd" d="M7.47242 1.25H3.44424C2.7965 1.25 2.3964 1.95664 2.72967 2.51208L7.22967 10.0121C7.38027 10.2631 7.65152 10.4167 7.94424 10.4167H11.9724C12.6202 10.4167 13.0203 9.71002 12.687 9.15459L8.187 1.65459C8.03639 1.40358 7.76514 1.25 7.47242 1.25ZM7.47242 1.66667C7.61878 1.66667 7.75441 1.74346 7.82971 1.86896L12.3297 9.36896C12.4963 9.64668 12.2963 10 11.9724 10H7.94424C7.79788 10 7.66226 9.92321 7.58695 9.79771L3.08695 2.29771C2.92032 2.01999 3.12037 1.66667 3.44424 1.66667H7.47242Z" fill="#023E84"></path>
        <path d="M12.1703 1.86897C12.2456 1.74346 12.3812 1.66667 12.5276 1.66667H16.5557C16.8796 1.66667 17.0797 2.01999 16.913 2.29771L12.413 9.79771C12.3377 9.92321 12.2021 10 12.0557 10H8.02757C7.7037 10 7.50365 9.64668 7.67028 9.36897L12.1703 1.86897Z" fill="#0870E9"></path>
        <path fill-rule="evenodd" clip-rule="evenodd" d="M12.5276 1.25H16.5557C17.2035 1.25 17.6036 1.95664 17.2703 2.51208L12.7703 10.0121C12.6197 10.2631 12.3485 10.4167 12.0557 10.4167H8.02757C7.37982 10.4167 6.97973 9.71002 7.31299 9.15459L11.813 1.65459C11.9636 1.40358 12.2348 1.25 12.5276 1.25ZM12.5276 1.66667C12.3812 1.66667 12.2456 1.74346 12.1703 1.86896L7.67028 9.36896C7.50365 9.64668 7.70369 10 8.02757 10H12.0557C12.2021 10 12.3377 9.92321 12.413 9.79771L16.913 2.29771C17.0797 2.01999 16.8796 1.66667 16.5557 1.66667H12.5276Z" fill="#023E84"></path>
        <path fill-rule="evenodd" clip-rule="evenodd" d="M12.6046 1.90317C12.7041 1.96095 12.7379 2.08845 12.6802 2.18795L10.8052 5.41711C10.7474 5.51662 10.6199 5.55044 10.5204 5.49267C10.4209 5.43489 10.3871 5.30739 10.4448 5.20789L12.3198 1.97873C12.3776 1.87922 12.5051 1.8454 12.6046 1.90317Z" fill="#3D96FF"></path>
        <path fill-rule="evenodd" clip-rule="evenodd" d="M3.43705 1.90317C3.33755 1.96095 3.30372 2.08845 3.3615 2.18795L5.2365 5.41711C5.29427 5.51662 5.42177 5.55044 5.52127 5.49267C5.62078 5.43489 5.6546 5.30739 5.59683 5.20789L3.72183 1.97873C3.66405 1.87922 3.53655 1.8454 3.43705 1.90317Z" fill="#1871DA"></path>
        <path d="M7.39583 2.35027C7.39583 2.49769 7.27924 2.6172 7.13542 2.6172C6.99159 2.6172 6.875 2.49769 6.875 2.35027C6.875 2.20285 6.99159 2.08334 7.13542 2.08334C7.27924 2.08334 7.39583 2.20285 7.39583 2.35027Z" fill="#034492"></path>
        <path d="M6.48119 2.41537C6.48119 2.59875 6.33616 2.74741 6.15726 2.74741C5.97836 2.74741 5.83333 2.59875 5.83333 2.41537C5.83333 2.232 5.97836 2.08334 6.15726 2.08334C6.33616 2.08334 6.48119 2.232 6.48119 2.41537Z" fill="#034492"></path>
        <path d="M7.29167 3.36589C7.29167 3.54927 7.14664 3.69792 6.96773 3.69792C6.78883 3.69792 6.6438 3.54927 6.6438 3.36589C6.6438 3.18251 6.78883 3.03386 6.96773 3.03386C7.14664 3.03386 7.29167 3.18251 7.29167 3.36589Z" fill="#034492"></path>
        <path d="M8.03226 2.91342C8.03226 3.00511 7.95975 3.07944 7.8703 3.07944C7.78084 3.07944 7.70833 3.00511 7.70833 2.91342C7.70833 2.82173 7.78084 2.74741 7.8703 2.74741C7.95975 2.74741 8.03226 2.82173 8.03226 2.91342Z" fill="#034492"></path>
        <path d="M6.31922 3.19987C6.31922 3.29156 6.2467 3.36589 6.15725 3.36589C6.0678 3.36589 5.99529 3.29156 5.99529 3.19987C5.99529 3.10819 6.0678 3.03386 6.15725 3.03386C6.2467 3.03386 6.31922 3.10819 6.31922 3.19987Z" fill="#034492"></path>
        <path d="M5.41666 2.18425C5.41666 2.27594 5.34415 2.35027 5.25469 2.35027C5.16524 2.35027 5.09273 2.27594 5.09273 2.18425C5.09273 2.09256 5.16524 2.01823 5.25469 2.01823C5.34415 2.01823 5.41666 2.09256 5.41666 2.18425Z" fill="#034492"></path>
        <path d="M7.87029 4.07227C7.87029 4.16395 7.79777 4.23828 7.70832 4.23828C7.61887 4.23828 7.54636 4.16395 7.54636 4.07227C7.54636 3.98058 7.61887 3.90625 7.70832 3.90625C7.79777 3.90625 7.87029 3.98058 7.87029 4.07227Z" fill="#034492"></path>
        <path d="M7.03696 4.23828C7.03696 4.32997 6.96445 4.4043 6.87499 4.4043C6.78554 4.4043 6.71303 4.32997 6.71303 4.23828C6.71303 4.14659 6.78554 4.07227 6.87499 4.07227C6.96445 4.07227 7.03696 4.14659 7.03696 4.23828Z" fill="#034492"></path>
        <path d="M8.65218 3.63607C8.65218 3.78529 8.53417 3.90626 8.38859 3.90626C8.24301 3.90626 8.125 3.78529 8.125 3.63607C8.125 3.48686 8.24301 3.36589 8.38859 3.36589C8.53417 3.36589 8.65218 3.48686 8.65218 3.63607Z" fill="#034492"></path>
        <path d="M8.99579 4.4043C8.99579 4.49598 8.92328 4.57031 8.83383 4.57031C8.74437 4.57031 8.67186 4.49598 8.67186 4.4043C8.67186 4.31261 8.74437 4.23828 8.83383 4.23828C8.92328 4.23828 8.99579 4.31261 8.99579 4.4043Z" fill="#034492"></path>
        <path d="M15.625 12.7083C15.625 15.8149 13.1066 18.3333 10 18.3333C6.8934 18.3333 4.375 15.8149 4.375 12.7083C4.375 9.60174 6.8934 7.08334 10 7.08334C13.1066 7.08334 15.625 9.60174 15.625 12.7083Z" fill="#FFBB0D"></path>
        <path fill-rule="evenodd" clip-rule="evenodd" d="M16.0417 12.7083C16.0417 16.0451 13.3367 18.75 9.99999 18.75C6.66327 18.75 3.95833 16.0451 3.95833 12.7083C3.95833 9.37162 6.66327 6.66667 9.99999 6.66667C13.3367 6.66667 16.0417 9.37162 16.0417 12.7083ZM9.99999 18.3333C13.1066 18.3333 15.625 15.8149 15.625 12.7083C15.625 9.60174 13.1066 7.08334 9.99999 7.08334C6.89339 7.08334 4.37499 9.60174 4.37499 12.7083C4.37499 15.8149 6.89339 18.3333 9.99999 18.3333Z" fill="#E89B05"></path>
        <path fill-rule="evenodd" clip-rule="evenodd" d="M4.79166 12.9167C4.6766 12.9167 4.58333 12.8234 4.58333 12.7083C4.58333 9.7168 7.00845 7.29167 10 7.29167C10.1151 7.29167 10.2083 7.38495 10.2083 7.50001C10.2083 7.61506 10.1151 7.70834 10 7.70834C7.23857 7.70834 4.99999 9.94691 4.99999 12.7083C4.99999 12.8234 4.90672 12.9167 4.79166 12.9167Z" fill="#E8AA0A"></path>
        <path fill-rule="evenodd" clip-rule="evenodd" d="M15.2083 12.5C15.3234 12.5 15.4167 12.5933 15.4167 12.7083C15.4167 15.6999 12.9915 18.125 9.99999 18.125C9.88493 18.125 9.79166 18.0317 9.79166 17.9167C9.79166 17.8016 9.88493 17.7083 9.99999 17.7083C12.7614 17.7083 15 15.4698 15 12.7083C15 12.5933 15.0933 12.5 15.2083 12.5Z" fill="#E8AA0A"></path>
        <path d="M14.1667 12.7083C14.1667 15.0095 12.3012 16.875 10 16.875C7.69881 16.875 5.83333 15.0095 5.83333 12.7083C5.83333 10.4072 7.69881 8.54167 10 8.54167C12.3012 8.54167 14.1667 10.4072 14.1667 12.7083Z" fill="#FFDD28"></path>
        <path fill-rule="evenodd" clip-rule="evenodd" d="M14.5833 12.7083C14.5833 15.2396 12.5313 17.2917 9.99999 17.2917C7.46868 17.2917 5.41666 15.2396 5.41666 12.7083C5.41666 10.177 7.46868 8.125 9.99999 8.125C12.5313 8.125 14.5833 10.177 14.5833 12.7083ZM9.99999 16.875C12.3012 16.875 14.1667 15.0095 14.1667 12.7083C14.1667 10.4071 12.3012 8.54167 9.99999 8.54167C7.6988 8.54167 5.83332 10.4071 5.83332 12.7083C5.83332 15.0095 7.6988 16.875 9.99999 16.875Z" fill="#E89B05"></path>
        <path fill-rule="evenodd" clip-rule="evenodd" d="M9.99999 16.25C11.956 16.25 13.5417 14.6643 13.5417 12.7083C13.5417 12.5933 13.6349 12.5 13.75 12.5C13.8651 12.5 13.9583 12.5933 13.9583 12.7083C13.9583 14.8945 12.1861 16.6667 9.99999 16.6667C9.88493 16.6667 9.79166 16.5734 9.79166 16.4583C9.79166 16.3433 9.88493 16.25 9.99999 16.25Z" fill="#ECC704"></path>
        <path fill-rule="evenodd" clip-rule="evenodd" d="M9.99999 9.16667C8.04398 9.16667 6.45832 10.7523 6.45832 12.7083C6.45832 12.8234 6.36505 12.9167 6.24999 12.9167C6.13493 12.9167 6.04166 12.8234 6.04166 12.7083C6.04166 10.5222 7.81386 8.75 9.99999 8.75C10.115 8.75 10.2083 8.84327 10.2083 8.95833C10.2083 9.07339 10.115 9.16667 9.99999 9.16667Z" fill="#FFEF9C"></path>
    </symbol>
    <symbol id="medal-3" xmlns="http://www.w3.org/2000/svg" viewBox="0 0 20 20">
        <path d="M7.82971 1.86897C7.75441 1.74346 7.61878 1.66667 7.47242 1.66667H3.44425C3.12037 1.66667 2.92033 2.01999 3.08696 2.29771L7.58696 9.79771C7.66226 9.92321 7.79789 10 7.94425 10H11.9724C12.2963 10 12.4963 9.64668 12.3297 9.36897L7.82971 1.86897Z" fill="#0355B6"></path>
        <path fill-rule="evenodd" clip-rule="evenodd" d="M7.47242 1.25H3.44424C2.7965 1.25 2.3964 1.95664 2.72967 2.51208L7.22967 10.0121C7.38027 10.2631 7.65152 10.4167 7.94424 10.4167H11.9724C12.6202 10.4167 13.0203 9.71002 12.687 9.15459L8.187 1.65459C8.03639 1.40358 7.76514 1.25 7.47242 1.25ZM7.47242 1.66667C7.61878 1.66667 7.75441 1.74346 7.82971 1.86896L12.3297 9.36896C12.4963 9.64668 12.2963 10 11.9724 10H7.94424C7.79788 10 7.66226 9.92321 7.58695 9.79771L3.08695 2.29771C2.92032 2.01999 3.12037 1.66667 3.44424 1.66667H7.47242Z" fill="#023E84"></path>
        <path d="M12.1703 1.86897C12.2456 1.74346 12.3812 1.66667 12.5276 1.66667H16.5558C16.8796 1.66667 17.0797 2.01999 16.913 2.29771L12.413 9.79771C12.3377 9.92321 12.2021 10 12.0558 10H8.02758C7.70371 10 7.50366 9.64668 7.67029 9.36897L12.1703 1.86897Z" fill="#F1333B"></path>
        <path fill-rule="evenodd" clip-rule="evenodd" d="M12.5276 1.25H16.5558C17.2035 1.25 17.6036 1.95664 17.2703 2.51208L12.7703 10.0121C12.6197 10.2631 12.3485 10.4167 12.0558 10.4167H8.02758C7.37984 10.4167 6.97974 9.71002 7.31301 9.15459L11.813 1.65459C11.9636 1.40358 12.2349 1.25 12.5276 1.25ZM12.5276 1.66667C12.3812 1.66667 12.2456 1.74346 12.1703 1.86896L7.67029 9.36896C7.50366 9.64668 7.70371 10 8.02758 10H12.0558C12.2021 10 12.3377 9.92321 12.413 9.79771L16.913 2.29771C17.0797 2.01999 16.8796 1.66667 16.5558 1.66667H12.5276Z" fill="#9B0F15"></path>
        <path fill-rule="evenodd" clip-rule="evenodd" d="M12.6046 1.90317C12.7041 1.96095 12.7379 2.08845 12.6802 2.18795L10.8052 5.41711C10.7474 5.51662 10.6199 5.55044 10.5204 5.49267C10.4209 5.43489 10.3871 5.30739 10.4448 5.20789L12.3198 1.97873C12.3776 1.87922 12.5051 1.8454 12.6046 1.90317Z" fill="#FE666D"></path>
        <path fill-rule="evenodd" clip-rule="evenodd" d="M3.43706 1.90317C3.33756 1.96095 3.30373 2.08845 3.36151 2.18795L5.23651 5.41711C5.29428 5.51662 5.42178 5.55044 5.52128 5.49267C5.62078 5.43489 5.65461 5.30739 5.59683 5.20789L3.72183 1.97873C3.66406 1.87922 3.53656 1.8454 3.43706 1.90317Z" fill="#1871DA"></path>
        <path d="M7.39583 2.35027C7.39583 2.49769 7.27924 2.6172 7.13542 2.6172C6.99159 2.6172 6.875 2.49769 6.875 2.35027C6.875 2.20285 6.99159 2.08334 7.13542 2.08334C7.27924 2.08334 7.39583 2.20285 7.39583 2.35027Z" fill="#034492"></path>
        <path d="M6.4812 2.41537C6.4812 2.59875 6.33617 2.74741 6.15727 2.74741C5.97837 2.74741 5.83334 2.59875 5.83334 2.41537C5.83334 2.232 5.97837 2.08334 6.15727 2.08334C6.33617 2.08334 6.4812 2.232 6.4812 2.41537Z" fill="#034492"></path>
        <path d="M7.29167 3.36589C7.29167 3.54927 7.14664 3.69792 6.96774 3.69792C6.78884 3.69792 6.64381 3.54927 6.64381 3.36589C6.64381 3.18251 6.78884 3.03386 6.96774 3.03386C7.14664 3.03386 7.29167 3.18251 7.29167 3.36589Z" fill="#034492"></path>
        <path d="M8.03227 2.91342C8.03227 3.00511 7.95975 3.07944 7.8703 3.07944C7.78085 3.07944 7.70834 3.00511 7.70834 2.91342C7.70834 2.82173 7.78085 2.74741 7.8703 2.74741C7.95975 2.74741 8.03227 2.82173 8.03227 2.91342Z" fill="#034492"></path>
        <path d="M6.31923 3.19987C6.31923 3.29156 6.24672 3.36589 6.15727 3.36589C6.06782 3.36589 5.9953 3.29156 5.9953 3.19987C5.9953 3.10819 6.06782 3.03386 6.15727 3.03386C6.24672 3.03386 6.31923 3.10819 6.31923 3.19987Z" fill="#034492"></path>
        <path d="M5.41667 2.18425C5.41667 2.27594 5.34415 2.35027 5.2547 2.35027C5.16525 2.35027 5.09274 2.27594 5.09274 2.18425C5.09274 2.09256 5.16525 2.01823 5.2547 2.01823C5.34415 2.01823 5.41667 2.09256 5.41667 2.18425Z" fill="#034492"></path>
        <path d="M7.8703 4.07227C7.8703 4.16395 7.79779 4.23828 7.70834 4.23828C7.61889 4.23828 7.54637 4.16395 7.54637 4.07227C7.54637 3.98058 7.61889 3.90625 7.70834 3.90625C7.79779 3.90625 7.8703 3.98058 7.8703 4.07227Z" fill="#034492"></path>
        <path d="M7.03697 4.23828C7.03697 4.32997 6.96445 4.4043 6.875 4.4043C6.78555 4.4043 6.71304 4.32997 6.71304 4.23828C6.71304 4.14659 6.78555 4.07227 6.875 4.07227C6.96445 4.07227 7.03697 4.14659 7.03697 4.23828Z" fill="#034492"></path>
        <path d="M8.65218 3.63607C8.65218 3.78529 8.53417 3.90626 8.38859 3.90626C8.24301 3.90626 8.125 3.78529 8.125 3.63607C8.125 3.48686 8.24301 3.36589 8.38859 3.36589C8.53417 3.36589 8.65218 3.48686 8.65218 3.63607Z" fill="#034492"></path>
        <path d="M8.99581 4.4043C8.99581 4.49598 8.92329 4.57031 8.83384 4.57031C8.74439 4.57031 8.67188 4.49598 8.67188 4.4043C8.67188 4.31261 8.74439 4.23828 8.83384 4.23828C8.92329 4.23828 8.99581 4.31261 8.99581 4.4043Z" fill="#034492"></path>
        <path d="M15.625 12.7083C15.625 15.8149 13.1066 18.3333 10 18.3333C6.8934 18.3333 4.375 15.8149 4.375 12.7083C4.375 9.60174 6.8934 7.08334 10 7.08334C13.1066 7.08334 15.625 9.60174 15.625 12.7083Z" fill="#FFBB0D"></path>
        <path fill-rule="evenodd" clip-rule="evenodd" d="M16.0417 12.7083C16.0417 16.0451 13.3367 18.75 10 18.75C6.66328 18.75 3.95834 16.0451 3.95834 12.7083C3.95834 9.37162 6.66328 6.66667 10 6.66667C13.3367 6.66667 16.0417 9.37162 16.0417 12.7083ZM10 18.3333C13.1066 18.3333 15.625 15.8149 15.625 12.7083C15.625 9.60174 13.1066 7.08334 10 7.08334C6.8934 7.08334 4.375 9.60174 4.375 12.7083C4.375 15.8149 6.8934 18.3333 10 18.3333Z" fill="#E89B05"></path>
        <path fill-rule="evenodd" clip-rule="evenodd" d="M4.79167 12.9167C4.67661 12.9167 4.58334 12.8234 4.58334 12.7083C4.58334 9.7168 7.00846 7.29167 10 7.29167C10.1151 7.29167 10.2083 7.38495 10.2083 7.50001C10.2083 7.61506 10.1151 7.70834 10 7.70834C7.23858 7.70834 5 9.94691 5 12.7083C5 12.8234 4.90673 12.9167 4.79167 12.9167Z" fill="#E8AA0A"></path>
        <path fill-rule="evenodd" clip-rule="evenodd" d="M15.2083 12.5C15.3234 12.5 15.4167 12.5933 15.4167 12.7083C15.4167 15.6999 12.9915 18.125 10 18.125C9.88495 18.125 9.79167 18.0317 9.79167 17.9167C9.79167 17.8016 9.88495 17.7083 10 17.7083C12.7614 17.7083 15 15.4698 15 12.7083C15 12.5933 15.0933 12.5 15.2083 12.5Z" fill="#E8AA0A"></path>
        <path d="M14.1667 12.7083C14.1667 15.0095 12.3012 16.875 10 16.875C7.69882 16.875 5.83334 15.0095 5.83334 12.7083C5.83334 10.4072 7.69882 8.54167 10 8.54167C12.3012 8.54167 14.1667 10.4072 14.1667 12.7083Z" fill="#FFDD28"></path>
        <path fill-rule="evenodd" clip-rule="evenodd" d="M14.5833 12.7083C14.5833 15.2396 12.5313 17.2917 10 17.2917C7.4687 17.2917 5.41667 15.2396 5.41667 12.7083C5.41667 10.177 7.4687 8.125 10 8.125C12.5313 8.125 14.5833 10.177 14.5833 12.7083ZM10 16.875C12.3012 16.875 14.1667 15.0095 14.1667 12.7083C14.1667 10.4071 12.3012 8.54167 10 8.54167C7.69882 8.54167 5.83334 10.4071 5.83334 12.7083C5.83334 15.0095 7.69882 16.875 10 16.875Z" fill="#E89B05"></path>
        <path fill-rule="evenodd" clip-rule="evenodd" d="M10 16.25C11.956 16.25 13.5417 14.6643 13.5417 12.7083C13.5417 12.5933 13.6349 12.5 13.75 12.5C13.8651 12.5 13.9583 12.5933 13.9583 12.7083C13.9583 14.8945 12.1861 16.6667 10 16.6667C9.88494 16.6667 9.79167 16.5734 9.79167 16.4583C9.79167 16.3433 9.88494 16.25 10 16.25Z" fill="#ECC704"></path>
        <path fill-rule="evenodd" clip-rule="evenodd" d="M10 9.16667C8.044 9.16667 6.45834 10.7523 6.45834 12.7083C6.45834 12.8234 6.36506 12.9167 6.25001 12.9167C6.13495 12.9167 6.04167 12.8234 6.04167 12.7083C6.04167 10.5222 7.81388 8.75 10 8.75C10.1151 8.75 10.2083 8.84327 10.2083 8.95833C10.2083 9.07339 10.1151 9.16667 10 9.16667Z" fill="#FFEF9C"></path>
    </symbol>
    <symbol id="medal-4" xmlns="http://www.w3.org/2000/svg" viewBox="0 0 20 20">
        <path d="M7.82971 1.86897C7.75441 1.74346 7.61878 1.66667 7.47242 1.66667H3.44425C3.12038 1.66667 2.92033 2.01999 3.08696 2.29771L7.58696 9.79771C7.66226 9.92321 7.79789 10 7.94425 10H11.9724C12.2963 10 12.4963 9.64668 12.3297 9.36896L7.82971 1.86897Z" fill="#348304"/>
        <path fill-rule="evenodd" clip-rule="evenodd" d="M7.47242 1.25H3.44425C2.7965 1.25 2.39641 1.95664 2.72967 2.51208L7.22967 10.0121C7.38027 10.2631 7.65153 10.4167 7.94425 10.4167H11.9724C12.6202 10.4167 13.0203 9.71002 12.687 9.15459L8.187 1.65459C8.0364 1.40358 7.76514 1.25 7.47242 1.25ZM7.47242 1.66667C7.61878 1.66667 7.75441 1.74346 7.82971 1.86896L12.3297 9.36896C12.4963 9.64668 12.2963 10 11.9724 10H7.94425C7.79789 10 7.66226 9.92321 7.58696 9.79771L3.08696 2.29771C2.92033 2.01999 3.12037 1.66667 3.44425 1.66667H7.47242Z" fill="#245E01"/>
        <path d="M12.1703 1.86897C12.2456 1.74346 12.3812 1.66667 12.5276 1.66667H16.5558C16.8796 1.66667 17.0797 2.01999 16.913 2.29771L12.413 9.79771C12.3377 9.92321 12.2021 10 12.0558 10H8.02758C7.70371 10 7.50366 9.64668 7.67029 9.36896L12.1703 1.86897Z" fill="#47B405"/>
        <path fill-rule="evenodd" clip-rule="evenodd" d="M12.5276 1.25H16.5558C17.2035 1.25 17.6036 1.95664 17.2703 2.51208L12.7703 10.0121C12.6197 10.2631 12.3485 10.4167 12.0558 10.4167H8.02758C7.37984 10.4167 6.97974 9.71002 7.31301 9.15459L11.813 1.65459C11.9636 1.40358 12.2349 1.25 12.5276 1.25ZM12.5276 1.66667C12.3812 1.66667 12.2456 1.74346 12.1703 1.86896L7.67029 9.36896C7.50366 9.64668 7.70371 10 8.02758 10H12.0558C12.2021 10 12.3377 9.92321 12.413 9.79771L16.913 2.29771C17.0797 2.01999 16.8796 1.66667 16.5558 1.66667H12.5276Z" fill="#245E01"/>
        <path fill-rule="evenodd" clip-rule="evenodd" d="M12.6046 1.90317C12.7041 1.96095 12.7379 2.08845 12.6802 2.18795L10.8052 5.41711C10.7474 5.51662 10.6199 5.55044 10.5204 5.49267C10.4209 5.43489 10.3871 5.30739 10.4448 5.20789L12.3198 1.97873C12.3776 1.87922 12.5051 1.8454 12.6046 1.90317Z" fill="#64D91D"/>
        <path fill-rule="evenodd" clip-rule="evenodd" d="M3.43706 1.90317C3.33756 1.96095 3.30373 2.08845 3.36151 2.18795L5.23651 5.41711C5.29428 5.51662 5.42178 5.55044 5.52128 5.49267C5.62078 5.43489 5.65461 5.30739 5.59683 5.20789L3.72183 1.97873C3.66406 1.87922 3.53656 1.8454 3.43706 1.90317Z" fill="#49A411"/>
        <path d="M7.39583 2.35027C7.39583 2.49769 7.27924 2.6172 7.13542 2.6172C6.99159 2.6172 6.875 2.49769 6.875 2.35027C6.875 2.20285 6.99159 2.08334 7.13542 2.08334C7.27924 2.08334 7.39583 2.20285 7.39583 2.35027Z" fill="#2A6A02"/>
        <path d="M6.4812 2.41537C6.4812 2.59875 6.33617 2.74741 6.15727 2.74741C5.97837 2.74741 5.83334 2.59875 5.83334 2.41537C5.83334 2.232 5.97837 2.08334 6.15727 2.08334C6.33617 2.08334 6.4812 2.232 6.4812 2.41537Z" fill="#2A6A02"/>
        <path d="M7.29167 3.36589C7.29167 3.54927 7.14664 3.69792 6.96774 3.69792C6.78884 3.69792 6.64381 3.54927 6.64381 3.36589C6.64381 3.18251 6.78884 3.03386 6.96774 3.03386C7.14664 3.03386 7.29167 3.18251 7.29167 3.36589Z" fill="#2A6A02"/>
        <path d="M8.03227 2.91342C8.03227 3.00511 7.95975 3.07944 7.8703 3.07944C7.78085 3.07944 7.70834 3.00511 7.70834 2.91342C7.70834 2.82173 7.78085 2.74741 7.8703 2.74741C7.95975 2.74741 8.03227 2.82173 8.03227 2.91342Z" fill="#2A6A02"/>
        <path d="M6.31923 3.19987C6.31923 3.29156 6.24672 3.36589 6.15727 3.36589C6.06782 3.36589 5.9953 3.29156 5.9953 3.19987C5.9953 3.10819 6.06782 3.03386 6.15727 3.03386C6.24672 3.03386 6.31923 3.10819 6.31923 3.19987Z" fill="#2A6A02"/>
        <path d="M5.41667 2.18425C5.41667 2.27594 5.34415 2.35027 5.2547 2.35027C5.16525 2.35027 5.09274 2.27594 5.09274 2.18425C5.09274 2.09256 5.16525 2.01823 5.2547 2.01823C5.34415 2.01823 5.41667 2.09256 5.41667 2.18425Z" fill="#2A6A02"/>
        <path d="M7.8703 4.07227C7.8703 4.16395 7.79779 4.23828 7.70834 4.23828C7.61889 4.23828 7.54637 4.16395 7.54637 4.07227C7.54637 3.98058 7.61889 3.90625 7.70834 3.90625C7.79779 3.90625 7.8703 3.98058 7.8703 4.07227Z" fill="#2A6A02"/>
        <path d="M7.03697 4.23828C7.03697 4.32997 6.96445 4.4043 6.875 4.4043C6.78555 4.4043 6.71304 4.32997 6.71304 4.23828C6.71304 4.14659 6.78555 4.07227 6.875 4.07227C6.96445 4.07227 7.03697 4.14659 7.03697 4.23828Z" fill="#2A6A02"/>
        <path d="M8.65218 3.63607C8.65218 3.78529 8.53417 3.90625 8.38859 3.90625C8.24301 3.90625 8.125 3.78529 8.125 3.63607C8.125 3.48686 8.24301 3.36589 8.38859 3.36589C8.53417 3.36589 8.65218 3.48686 8.65218 3.63607Z" fill="#2A6A02"/>
        <path d="M8.99581 4.4043C8.99581 4.49598 8.92329 4.57031 8.83384 4.57031C8.74439 4.57031 8.67188 4.49598 8.67188 4.4043C8.67188 4.31261 8.74439 4.23828 8.83384 4.23828C8.92329 4.23828 8.99581 4.31261 8.99581 4.4043Z" fill="#2A6A02"/>
        <path d="M15.625 12.7083C15.625 15.8149 13.1066 18.3333 10 18.3333C6.8934 18.3333 4.375 15.8149 4.375 12.7083C4.375 9.60174 6.8934 7.08334 10 7.08334C13.1066 7.08334 15.625 9.60174 15.625 12.7083Z" fill="#FFBB0D"/>
        <path fill-rule="evenodd" clip-rule="evenodd" d="M16.0417 12.7083C16.0417 16.0451 13.3367 18.75 10 18.75C6.66328 18.75 3.95834 16.0451 3.95834 12.7083C3.95834 9.37162 6.66328 6.66667 10 6.66667C13.3367 6.66667 16.0417 9.37162 16.0417 12.7083ZM10 18.3333C13.1066 18.3333 15.625 15.8149 15.625 12.7083C15.625 9.60174 13.1066 7.08334 10 7.08334C6.8934 7.08334 4.375 9.60174 4.375 12.7083C4.375 15.8149 6.8934 18.3333 10 18.3333Z" fill="#E89B05"/>
        <path fill-rule="evenodd" clip-rule="evenodd" d="M4.79167 12.9167C4.67661 12.9167 4.58334 12.8234 4.58334 12.7083C4.58334 9.7168 7.00846 7.29167 10 7.29167C10.1151 7.29167 10.2083 7.38495 10.2083 7.50001C10.2083 7.61506 10.1151 7.70834 10 7.70834C7.23858 7.70834 5 9.94691 5 12.7083C5 12.8234 4.90673 12.9167 4.79167 12.9167Z" fill="#E8AA0A"/>
        <path fill-rule="evenodd" clip-rule="evenodd" d="M15.2083 12.5C15.3234 12.5 15.4167 12.5933 15.4167 12.7083C15.4167 15.6999 12.9915 18.125 10 18.125C9.88494 18.125 9.79167 18.0317 9.79167 17.9167C9.79167 17.8016 9.88494 17.7083 10 17.7083C12.7614 17.7083 15 15.4698 15 12.7083C15 12.5933 15.0933 12.5 15.2083 12.5Z" fill="#E8AA0A"/>
        <path d="M14.1667 12.7083C14.1667 15.0095 12.3012 16.875 10 16.875C7.69882 16.875 5.83334 15.0095 5.83334 12.7083C5.83334 10.4072 7.69882 8.54167 10 8.54167C12.3012 8.54167 14.1667 10.4072 14.1667 12.7083Z" fill="#FFDD28"/>
        <path fill-rule="evenodd" clip-rule="evenodd" d="M14.5833 12.7083C14.5833 15.2396 12.5313 17.2917 10 17.2917C7.4687 17.2917 5.41667 15.2396 5.41667 12.7083C5.41667 10.177 7.4687 8.125 10 8.125C12.5313 8.125 14.5833 10.177 14.5833 12.7083ZM10 16.875C12.3012 16.875 14.1667 15.0095 14.1667 12.7083C14.1667 10.4071 12.3012 8.54167 10 8.54167C7.69882 8.54167 5.83334 10.4071 5.83334 12.7083C5.83334 15.0095 7.69882 16.875 10 16.875Z" fill="#E89B05"/>
        <path fill-rule="evenodd" clip-rule="evenodd" d="M10 16.25C11.956 16.25 13.5417 14.6643 13.5417 12.7083C13.5417 12.5933 13.6349 12.5 13.75 12.5C13.8651 12.5 13.9583 12.5933 13.9583 12.7083C13.9583 14.8945 12.1861 16.6667 10 16.6667C9.88495 16.6667 9.79167 16.5734 9.79167 16.4583C9.79167 16.3433 9.88495 16.25 10 16.25Z" fill="#ECC704"/>
        <path fill-rule="evenodd" clip-rule="evenodd" d="M10 9.16667C8.044 9.16667 6.45834 10.7523 6.45834 12.7083C6.45834 12.8234 6.36506 12.9167 6.25001 12.9167C6.13495 12.9167 6.04167 12.8234 6.04167 12.7083C6.04167 10.5222 7.81388 8.75 10 8.75C10.1151 8.75 10.2083 8.84327 10.2083 8.95833C10.2083 9.07339 10.1151 9.16667 10 9.16667Z" fill="#FFEF9C"/>
    </symbol>
    <symbol id="medal-5" xmlns="http://www.w3.org/2000/svg" viewBox="0 0 20 20">
        <path d="M7.82971 1.86897C7.75441 1.74346 7.61878 1.66667 7.47242 1.66667H3.44425C3.12037 1.66667 2.92033 2.01999 3.08696 2.29771L7.58696 9.79771C7.66226 9.92321 7.79789 10 7.94425 10H11.9724C12.2963 10 12.4963 9.64668 12.3297 9.36897L7.82971 1.86897Z" fill="#800CDB"></path>
        <path fill-rule="evenodd" clip-rule="evenodd" d="M7.47242 1.25H3.44425C2.7965 1.25 2.39641 1.95664 2.72967 2.51208L7.22967 10.0121C7.38027 10.2631 7.65153 10.4167 7.94425 10.4167H11.9724C12.6202 10.4167 13.0203 9.71002 12.687 9.15459L8.187 1.65459C8.0364 1.40358 7.76514 1.25 7.47242 1.25ZM7.47242 1.66667C7.61878 1.66667 7.75441 1.74346 7.82971 1.86896L12.3297 9.36896C12.4963 9.64668 12.2963 10 11.9724 10H7.94425C7.79789 10 7.66226 9.92321 7.58696 9.79771L3.08696 2.29771C2.92033 2.01999 3.12037 1.66667 3.44425 1.66667H7.47242Z" fill="#6303AF"></path>
        <path d="M12.1703 1.86897C12.2456 1.74346 12.3812 1.66667 12.5276 1.66667H16.5558C16.8796 1.66667 17.0797 2.01999 16.913 2.29771L12.413 9.79771C12.3377 9.92321 12.2021 10 12.0558 10H8.02758C7.70371 10 7.50366 9.64668 7.67029 9.36897L12.1703 1.86897Z" fill="#9B2EF0"></path>
        <path fill-rule="evenodd" clip-rule="evenodd" d="M12.5276 1.25H16.5557C17.2035 1.25 17.6036 1.95664 17.2703 2.51208L12.7703 10.0121C12.6197 10.2631 12.3485 10.4167 12.0558 10.4167H8.02758C7.37983 10.4167 6.97974 9.71002 7.313 9.15459L11.813 1.65459C11.9636 1.40358 12.2349 1.25 12.5276 1.25ZM12.5276 1.66667C12.3812 1.66667 12.2456 1.74346 12.1703 1.86896L7.67029 9.36896C7.50366 9.64668 7.70371 10 8.02758 10H12.0558C12.2021 10 12.3377 9.92321 12.413 9.79771L16.913 2.29771C17.0797 2.01999 16.8796 1.66667 16.5557 1.66667H12.5276Z" fill="#6303AF"></path>
        <path fill-rule="evenodd" clip-rule="evenodd" d="M12.6046 1.90317C12.7041 1.96095 12.7379 2.08845 12.6802 2.18795L10.8052 5.41711C10.7474 5.51662 10.6199 5.55044 10.5204 5.49267C10.4209 5.43489 10.3871 5.30739 10.4448 5.20789L12.3198 1.97873C12.3776 1.87922 12.5051 1.8454 12.6046 1.90317Z" fill="#B860FE"></path>
        <path fill-rule="evenodd" clip-rule="evenodd" d="M3.43706 1.90317C3.33755 1.96095 3.30373 2.08845 3.3615 2.18795L5.2365 5.41711C5.29428 5.51662 5.42178 5.55044 5.52128 5.49267C5.62078 5.43489 5.65461 5.30739 5.59683 5.20789L3.72183 1.97873C3.66406 1.87922 3.53656 1.8454 3.43706 1.90317Z" fill="#9A1CFD"></path>
        <path d="M7.39583 2.35027C7.39583 2.49769 7.27924 2.6172 7.13542 2.6172C6.99159 2.6172 6.875 2.49769 6.875 2.35027C6.875 2.20285 6.99159 2.08334 7.13542 2.08334C7.27924 2.08334 7.39583 2.20285 7.39583 2.35027Z" fill="#6804B7"></path>
        <path d="M6.4812 2.41537C6.4812 2.59875 6.33617 2.74741 6.15727 2.74741C5.97836 2.74741 5.83333 2.59875 5.83333 2.41537C5.83333 2.232 5.97836 2.08334 6.15727 2.08334C6.33617 2.08334 6.4812 2.232 6.4812 2.41537Z" fill="#6804B7"></path>
        <path d="M7.29167 3.36589C7.29167 3.54927 7.14664 3.69792 6.96774 3.69792C6.78883 3.69792 6.6438 3.54927 6.6438 3.36589C6.6438 3.18251 6.78883 3.03386 6.96774 3.03386C7.14664 3.03386 7.29167 3.18251 7.29167 3.36589Z" fill="#6804B7"></path>
        <path d="M8.03227 2.91342C8.03227 3.00511 7.95975 3.07944 7.8703 3.07944C7.78085 3.07944 7.70833 3.00511 7.70833 2.91342C7.70833 2.82173 7.78085 2.74741 7.8703 2.74741C7.95975 2.74741 8.03227 2.82173 8.03227 2.91342Z" fill="#6804B7"></path>
        <path d="M6.31923 3.19987C6.31923 3.29156 6.24672 3.36589 6.15727 3.36589C6.06781 3.36589 5.9953 3.29156 5.9953 3.19987C5.9953 3.10819 6.06781 3.03386 6.15727 3.03386C6.24672 3.03386 6.31923 3.10819 6.31923 3.19987Z" fill="#6804B7"></path>
        <path d="M5.41667 2.18425C5.41667 2.27594 5.34415 2.35027 5.2547 2.35027C5.16525 2.35027 5.09274 2.27594 5.09274 2.18425C5.09274 2.09256 5.16525 2.01823 5.2547 2.01823C5.34415 2.01823 5.41667 2.09256 5.41667 2.18425Z" fill="#6804B7"></path>
        <path d="M7.8703 4.07227C7.8703 4.16395 7.79779 4.23828 7.70833 4.23828C7.61888 4.23828 7.54637 4.16395 7.54637 4.07227C7.54637 3.98058 7.61888 3.90625 7.70833 3.90625C7.79779 3.90625 7.8703 3.98058 7.8703 4.07227Z" fill="#6804B7"></path>
        <path d="M7.03697 4.23828C7.03697 4.32997 6.96445 4.4043 6.875 4.4043C6.78555 4.4043 6.71303 4.32997 6.71303 4.23828C6.71303 4.14659 6.78555 4.07227 6.875 4.07227C6.96445 4.07227 7.03697 4.14659 7.03697 4.23828Z" fill="#6804B7"></path>
        <path d="M8.65218 3.63607C8.65218 3.78529 8.53417 3.90626 8.38859 3.90626C8.24301 3.90626 8.125 3.78529 8.125 3.63607C8.125 3.48686 8.24301 3.36589 8.38859 3.36589C8.53417 3.36589 8.65218 3.48686 8.65218 3.63607Z" fill="#6804B7"></path>
        <path d="M8.99581 4.4043C8.99581 4.49598 8.92329 4.57031 8.83384 4.57031C8.74439 4.57031 8.67188 4.49598 8.67188 4.4043C8.67188 4.31261 8.74439 4.23828 8.83384 4.23828C8.92329 4.23828 8.99581 4.31261 8.99581 4.4043Z" fill="#6804B7"></path>
        <path d="M15.625 12.7083C15.625 15.8149 13.1066 18.3333 10 18.3333C6.8934 18.3333 4.375 15.8149 4.375 12.7083C4.375 9.60174 6.8934 7.08334 10 7.08334C13.1066 7.08334 15.625 9.60174 15.625 12.7083Z" fill="#FFBB0D"></path>
        <path fill-rule="evenodd" clip-rule="evenodd" d="M16.0417 12.7083C16.0417 16.0451 13.3367 18.75 10 18.75C6.66328 18.75 3.95833 16.0451 3.95833 12.7083C3.95833 9.37162 6.66328 6.66667 10 6.66667C13.3367 6.66667 16.0417 9.37162 16.0417 12.7083ZM10 18.3333C13.1066 18.3333 15.625 15.8149 15.625 12.7083C15.625 9.60174 13.1066 7.08334 10 7.08334C6.8934 7.08334 4.375 9.60174 4.375 12.7083C4.375 15.8149 6.8934 18.3333 10 18.3333Z" fill="#E89B05"></path>
        <path fill-rule="evenodd" clip-rule="evenodd" d="M4.79167 12.9167C4.67661 12.9167 4.58333 12.8234 4.58333 12.7083C4.58333 9.7168 7.00846 7.29167 10 7.29167C10.1151 7.29167 10.2083 7.38495 10.2083 7.50001C10.2083 7.61506 10.1151 7.70834 10 7.70834C7.23858 7.70834 5 9.94691 5 12.7083C5 12.8234 4.90673 12.9167 4.79167 12.9167Z" fill="#E8AA0A"></path>
        <path fill-rule="evenodd" clip-rule="evenodd" d="M15.2083 12.5C15.3234 12.5 15.4167 12.5933 15.4167 12.7083C15.4167 15.6999 12.9915 18.125 10 18.125C9.88494 18.125 9.79167 18.0317 9.79167 17.9167C9.79167 17.8016 9.88494 17.7083 10 17.7083C12.7614 17.7083 15 15.4698 15 12.7083C15 12.5933 15.0933 12.5 15.2083 12.5Z" fill="#E8AA0A"></path>
        <path d="M14.1667 12.7083C14.1667 15.0095 12.3012 16.875 10 16.875C7.69881 16.875 5.83333 15.0095 5.83333 12.7083C5.83333 10.4072 7.69881 8.54167 10 8.54167C12.3012 8.54167 14.1667 10.4072 14.1667 12.7083Z" fill="#FFDD28"></path>
        <path fill-rule="evenodd" clip-rule="evenodd" d="M14.5833 12.7083C14.5833 15.2396 12.5313 17.2917 10 17.2917C7.4687 17.2917 5.41667 15.2396 5.41667 12.7083C5.41667 10.177 7.4687 8.125 10 8.125C12.5313 8.125 14.5833 10.177 14.5833 12.7083ZM10 16.875C12.3012 16.875 14.1667 15.0095 14.1667 12.7083C14.1667 10.4071 12.3012 8.54167 10 8.54167C7.69881 8.54167 5.83333 10.4071 5.83333 12.7083C5.83333 15.0095 7.69881 16.875 10 16.875Z" fill="#E89B05"></path>
        <path fill-rule="evenodd" clip-rule="evenodd" d="M10 16.25C11.956 16.25 13.5417 14.6643 13.5417 12.7083C13.5417 12.5933 13.6349 12.5 13.75 12.5C13.8651 12.5 13.9583 12.5933 13.9583 12.7083C13.9583 14.8945 12.1861 16.6667 10 16.6667C9.88494 16.6667 9.79167 16.5734 9.79167 16.4583C9.79167 16.3433 9.88494 16.25 10 16.25Z" fill="#ECC704"></path>
        <path fill-rule="evenodd" clip-rule="evenodd" d="M10 9.16667C8.04399 9.16667 6.45833 10.7523 6.45833 12.7083C6.45833 12.8234 6.36506 12.9167 6.25 12.9167C6.13494 12.9167 6.04167 12.8234 6.04167 12.7083C6.04167 10.5222 7.81387 8.75 10 8.75C10.1151 8.75 10.2083 8.84327 10.2083 8.95833C10.2083 9.07339 10.1151 9.16667 10 9.16667Z" fill="#FFEF9C"></path>
    </symbol>
    <symbol id="medal-6" xmlns="http://www.w3.org/2000/svg" viewBox="0 0 20 20">
        <path d="M7.82971 1.86897C7.75441 1.74346 7.61878 1.66667 7.47242 1.66667H3.44425C3.12037 1.66667 2.92033 2.01999 3.08696 2.29771L7.58696 9.79771C7.66226 9.92321 7.79789 10 7.94425 10H11.9724C12.2963 10 12.4963 9.64668 12.3297 9.36897L7.82971 1.86897Z" fill="#383634"></path>
        <path fill-rule="evenodd" clip-rule="evenodd" d="M7.47242 1.25H3.44425C2.7965 1.25 2.39641 1.95664 2.72967 2.51208L7.22967 10.0121C7.38027 10.2631 7.65153 10.4167 7.94425 10.4167H11.9724C12.6202 10.4167 13.0203 9.71002 12.687 9.15459L8.187 1.65459C8.0364 1.40358 7.76514 1.25 7.47242 1.25ZM7.47242 1.66667C7.61878 1.66667 7.75441 1.74346 7.82971 1.86896L12.3297 9.36896C12.4963 9.64668 12.2963 10 11.9724 10H7.94425C7.79789 10 7.66226 9.92321 7.58696 9.79771L3.08696 2.29771C2.92033 2.01999 3.12037 1.66667 3.44425 1.66667H7.47242Z" fill="#171716"></path>
        <path d="M12.1703 1.86897C12.2456 1.74346 12.3812 1.66667 12.5276 1.66667H16.5558C16.8796 1.66667 17.0797 2.01999 16.913 2.29771L12.413 9.79771C12.3377 9.92321 12.2021 10 12.0558 10H8.02758C7.70371 10 7.50366 9.64668 7.67029 9.36897L12.1703 1.86897Z" fill="#565452"></path>
        <path fill-rule="evenodd" clip-rule="evenodd" d="M12.5276 1.25H16.5557C17.2035 1.25 17.6036 1.95664 17.2703 2.51208L12.7703 10.0121C12.6197 10.2631 12.3485 10.4167 12.0558 10.4167H8.02758C7.37983 10.4167 6.97974 9.71002 7.313 9.15459L11.813 1.65459C11.9636 1.40358 12.2349 1.25 12.5276 1.25ZM12.5276 1.66667C12.3812 1.66667 12.2456 1.74346 12.1703 1.86896L7.67029 9.36896C7.50366 9.64668 7.70371 10 8.02758 10H12.0558C12.2021 10 12.3377 9.92321 12.413 9.79771L16.913 2.29771C17.0797 2.01999 16.8796 1.66667 16.5557 1.66667H12.5276Z" fill="#171716"></path>
        <path fill-rule="evenodd" clip-rule="evenodd" d="M12.6046 1.90317C12.7041 1.96095 12.7379 2.08845 12.6802 2.18795L10.8052 5.41711C10.7474 5.51662 10.6199 5.55044 10.5204 5.49267C10.4209 5.43489 10.3871 5.30739 10.4448 5.20789L12.3198 1.97873C12.3776 1.87922 12.5051 1.8454 12.6046 1.90317Z" fill="#8A8886"></path>
        <path fill-rule="evenodd" clip-rule="evenodd" d="M3.43706 1.90317C3.33755 1.96095 3.30373 2.08845 3.3615 2.18795L5.2365 5.41711C5.29428 5.51662 5.42178 5.55044 5.52128 5.49267C5.62078 5.43489 5.65461 5.30739 5.59683 5.20789L3.72183 1.97873C3.66406 1.87922 3.53656 1.8454 3.43706 1.90317Z" fill="#5A5857"></path>
        <path d="M7.39583 2.35027C7.39583 2.49769 7.27924 2.6172 7.13542 2.6172C6.99159 2.6172 6.875 2.49769 6.875 2.35027C6.875 2.20285 6.99159 2.08334 7.13542 2.08334C7.27924 2.08334 7.39583 2.20285 7.39583 2.35027Z" fill="#252323"></path>
        <path d="M6.4812 2.41537C6.4812 2.59875 6.33617 2.74741 6.15727 2.74741C5.97836 2.74741 5.83333 2.59875 5.83333 2.41537C5.83333 2.232 5.97836 2.08334 6.15727 2.08334C6.33617 2.08334 6.4812 2.232 6.4812 2.41537Z" fill="#252323"></path>
        <path d="M7.29167 3.36589C7.29167 3.54927 7.14664 3.69792 6.96774 3.69792C6.78883 3.69792 6.6438 3.54927 6.6438 3.36589C6.6438 3.18251 6.78883 3.03386 6.96774 3.03386C7.14664 3.03386 7.29167 3.18251 7.29167 3.36589Z" fill="#252323"></path>
        <path d="M8.03227 2.91342C8.03227 3.00511 7.95975 3.07944 7.8703 3.07944C7.78085 3.07944 7.70833 3.00511 7.70833 2.91342C7.70833 2.82173 7.78085 2.74741 7.8703 2.74741C7.95975 2.74741 8.03227 2.82173 8.03227 2.91342Z" fill="#252323"></path>
        <path d="M6.31923 3.19987C6.31923 3.29156 6.24672 3.36589 6.15727 3.36589C6.06781 3.36589 5.9953 3.29156 5.9953 3.19987C5.9953 3.10819 6.06781 3.03386 6.15727 3.03386C6.24672 3.03386 6.31923 3.10819 6.31923 3.19987Z" fill="#252323"></path>
        <path d="M5.41667 2.18425C5.41667 2.27594 5.34415 2.35027 5.2547 2.35027C5.16525 2.35027 5.09274 2.27594 5.09274 2.18425C5.09274 2.09256 5.16525 2.01823 5.2547 2.01823C5.34415 2.01823 5.41667 2.09256 5.41667 2.18425Z" fill="#252323"></path>
        <path d="M7.8703 4.07227C7.8703 4.16395 7.79779 4.23828 7.70833 4.23828C7.61888 4.23828 7.54637 4.16395 7.54637 4.07227C7.54637 3.98058 7.61888 3.90625 7.70833 3.90625C7.79779 3.90625 7.8703 3.98058 7.8703 4.07227Z" fill="#252323"></path>
        <path d="M7.03697 4.23828C7.03697 4.32997 6.96445 4.4043 6.875 4.4043C6.78555 4.4043 6.71303 4.32997 6.71303 4.23828C6.71303 4.14659 6.78555 4.07227 6.875 4.07227C6.96445 4.07227 7.03697 4.14659 7.03697 4.23828Z" fill="#252323"></path>
        <path d="M8.65218 3.63607C8.65218 3.78529 8.53417 3.90626 8.38859 3.90626C8.24301 3.90626 8.125 3.78529 8.125 3.63607C8.125 3.48686 8.24301 3.36589 8.38859 3.36589C8.53417 3.36589 8.65218 3.48686 8.65218 3.63607Z" fill="#252323"></path>
        <path d="M8.99581 4.4043C8.99581 4.49598 8.92329 4.57031 8.83384 4.57031C8.74439 4.57031 8.67188 4.49598 8.67188 4.4043C8.67188 4.31261 8.74439 4.23828 8.83384 4.23828C8.92329 4.23828 8.99581 4.31261 8.99581 4.4043Z" fill="#252323"></path>
        <path d="M15.625 12.7083C15.625 15.8149 13.1066 18.3333 10 18.3333C6.8934 18.3333 4.375 15.8149 4.375 12.7083C4.375 9.60174 6.8934 7.08334 10 7.08334C13.1066 7.08334 15.625 9.60174 15.625 12.7083Z" fill="#FFBB0D"></path>
        <path fill-rule="evenodd" clip-rule="evenodd" d="M16.0417 12.7083C16.0417 16.0451 13.3367 18.75 10 18.75C6.66328 18.75 3.95833 16.0451 3.95833 12.7083C3.95833 9.37162 6.66328 6.66667 10 6.66667C13.3367 6.66667 16.0417 9.37162 16.0417 12.7083ZM10 18.3333C13.1066 18.3333 15.625 15.8149 15.625 12.7083C15.625 9.60174 13.1066 7.08334 10 7.08334C6.8934 7.08334 4.375 9.60174 4.375 12.7083C4.375 15.8149 6.8934 18.3333 10 18.3333Z" fill="#E89B05"></path>
        <path fill-rule="evenodd" clip-rule="evenodd" d="M4.79167 12.9167C4.67661 12.9167 4.58334 12.8234 4.58334 12.7083C4.58334 9.7168 7.00846 7.29167 10 7.29167C10.1151 7.29167 10.2083 7.38495 10.2083 7.50001C10.2083 7.61506 10.1151 7.70834 10 7.70834C7.23858 7.70834 5 9.94691 5 12.7083C5 12.8234 4.90673 12.9167 4.79167 12.9167Z" fill="#E8AA0A"></path>
        <path fill-rule="evenodd" clip-rule="evenodd" d="M15.2083 12.5C15.3234 12.5 15.4167 12.5933 15.4167 12.7083C15.4167 15.6999 12.9915 18.125 10 18.125C9.88494 18.125 9.79167 18.0317 9.79167 17.9167C9.79167 17.8016 9.88494 17.7083 10 17.7083C12.7614 17.7083 15 15.4698 15 12.7083C15 12.5933 15.0933 12.5 15.2083 12.5Z" fill="#E8AA0A"></path>
        <path d="M14.1667 12.7083C14.1667 15.0095 12.3012 16.875 10 16.875C7.69881 16.875 5.83333 15.0095 5.83333 12.7083C5.83333 10.4072 7.69881 8.54167 10 8.54167C12.3012 8.54167 14.1667 10.4072 14.1667 12.7083Z" fill="#FFDD28"></path>
        <path fill-rule="evenodd" clip-rule="evenodd" d="M14.5833 12.7083C14.5833 15.2396 12.5313 17.2917 10 17.2917C7.4687 17.2917 5.41667 15.2396 5.41667 12.7083C5.41667 10.177 7.4687 8.125 10 8.125C12.5313 8.125 14.5833 10.177 14.5833 12.7083ZM10 16.875C12.3012 16.875 14.1667 15.0095 14.1667 12.7083C14.1667 10.4071 12.3012 8.54167 10 8.54167C7.69881 8.54167 5.83333 10.4071 5.83333 12.7083C5.83333 15.0095 7.69881 16.875 10 16.875Z" fill="#E89B05"></path>
        <path fill-rule="evenodd" clip-rule="evenodd" d="M10 16.25C11.956 16.25 13.5417 14.6643 13.5417 12.7083C13.5417 12.5933 13.6349 12.5 13.75 12.5C13.8651 12.5 13.9583 12.5933 13.9583 12.7083C13.9583 14.8945 12.1861 16.6667 10 16.6667C9.88494 16.6667 9.79167 16.5734 9.79167 16.4583C9.79167 16.3433 9.88494 16.25 10 16.25Z" fill="#ECC704"></path>
        <path fill-rule="evenodd" clip-rule="evenodd" d="M10 9.16667C8.04399 9.16667 6.45833 10.7523 6.45833 12.7083C6.45833 12.8234 6.36506 12.9167 6.25 12.9167C6.13494 12.9167 6.04167 12.8234 6.04167 12.7083C6.04167 10.5222 7.81387 8.75 10 8.75C10.1151 8.75 10.2083 8.84327 10.2083 8.95833C10.2083 9.07339 10.1151 9.16667 10 9.16667Z" fill="#FFEF9C"></path>
    </symbol>

    <symbol id="react" viewBox="0 0 42 29" fill="none" xmlns="http://www.w3.org/2000/svg">
        <g clip-path="url(#clip0_4_1371)">
            <path d="M36.5644 14.5033C36.5644 12.3461 33.8629 10.3017 29.721 9.03387C30.6768 4.81231 30.252 1.45365 28.3801 0.378347C27.9487 0.126116 27.4442 0.00663757 26.8933 0.00663757V1.48684C27.1986 1.48684 27.4442 1.54658 27.65 1.65942C28.5527 2.17716 28.9443 4.14855 28.639 6.68414C28.566 7.30808 28.4465 7.96521 28.3005 8.63561C26.9995 8.31701 25.5791 8.07141 24.0856 7.91211C23.1895 6.68414 22.2602 5.56901 21.3243 4.59327C23.4882 2.58205 25.5193 1.4802 26.8999 1.4802V0C25.0746 0 22.685 1.30098 20.2689 3.55779C17.8528 1.31426 15.4632 0.0265508 13.6379 0.0265508V1.50675C15.0119 1.50675 17.0497 2.60197 19.2135 4.59991C18.2843 5.57565 17.355 6.68414 16.4722 7.91211C14.9721 8.07141 13.5516 8.31701 12.2506 8.64225C12.098 7.97848 11.9851 7.33463 11.9055 6.71733C11.5935 4.18173 11.9785 2.21035 12.8746 1.68597C13.0737 1.56649 13.3326 1.51339 13.6379 1.51339V0.0331884C13.0803 0.0331884 12.5759 0.152666 12.1378 0.404898C10.2726 1.4802 9.85442 4.83223 10.8169 9.04051C6.68825 10.3149 4 12.3527 4 14.5033C4 16.6606 6.70153 18.705 10.8434 19.9728C9.88761 24.1943 10.3124 27.553 12.1842 28.6283C12.6157 28.8805 13.1202 29 13.6777 29C15.5031 29 17.8926 27.699 20.3087 25.4422C22.7249 27.6857 25.1144 28.9734 26.9398 28.9734C27.4973 28.9734 28.0018 28.854 28.4399 28.6017C30.3051 27.5264 30.7232 24.1744 29.7608 19.9661C33.8761 18.6983 36.5644 16.6539 36.5644 14.5033ZM27.9221 10.076C27.6766 10.9322 27.3712 11.8151 27.0261 12.6979C26.7539 12.1669 26.4685 11.6358 26.1565 11.1048C25.8512 10.5738 25.526 10.0561 25.2007 9.55161C26.1433 9.691 27.0526 9.86358 27.9221 10.076ZM24.8821 17.1451C24.3644 18.0412 23.8333 18.8908 23.2824 19.6807C22.2934 19.767 21.2911 19.8135 20.2822 19.8135C19.2799 19.8135 18.2776 19.767 17.2952 19.6873C16.7443 18.8975 16.2067 18.0545 15.6889 17.165C15.1845 16.2955 14.7265 15.4127 14.3083 14.5232C14.7198 13.6338 15.1845 12.7443 15.6823 11.8748C16.2 10.9787 16.731 10.1291 17.282 9.33921C18.271 9.25292 19.2733 9.20645 20.2822 9.20645C21.2845 9.20645 22.2868 9.25292 23.2691 9.33257C23.8201 10.1225 24.3577 10.9654 24.8755 11.8549C25.3799 12.7244 25.8379 13.6072 26.2561 14.4967C25.8379 15.3861 25.3799 16.2756 24.8821 17.1451ZM27.0261 16.2822C27.3845 17.1717 27.6898 18.0611 27.9421 18.924C27.0725 19.1364 26.1565 19.3156 25.2073 19.455C25.5326 18.9439 25.8578 18.4195 26.1632 17.8819C26.4685 17.3509 26.7539 16.8132 27.0261 16.2822ZM20.2955 23.3646C19.6782 22.7274 19.0609 22.0172 18.4502 21.2406C19.0476 21.2671 19.6583 21.287 20.2756 21.287C20.8995 21.287 21.5168 21.2737 22.1208 21.2406C21.5234 22.0172 20.9061 22.7274 20.2955 23.3646ZM15.357 19.455C14.4145 19.3156 13.5051 19.1431 12.6356 18.9306C12.8812 18.0744 13.1865 17.1916 13.5317 16.3088C13.8038 16.8398 14.0893 17.3708 14.4012 17.9018C14.7132 18.4328 15.0318 18.9506 15.357 19.455ZM20.2623 5.64202C20.8796 6.27924 21.4969 6.98947 22.1076 7.76608C21.5102 7.73953 20.8995 7.71961 20.2822 7.71961C19.6583 7.71961 19.041 7.73289 18.4369 7.76608C19.0343 6.98947 19.6516 6.27924 20.2623 5.64202ZM15.3504 9.55161C15.0252 10.0627 14.6999 10.5871 14.3946 11.1247C14.0893 11.6558 13.8038 12.1868 13.5317 12.7178C13.1733 11.8283 12.8679 10.9389 12.6157 10.076C13.4852 9.87022 14.4012 9.691 15.3504 9.55161ZM9.34332 17.862C6.99359 16.8597 5.47356 15.5454 5.47356 14.5033C5.47356 13.4612 6.99359 12.1403 9.34332 11.1447C9.91416 10.8991 10.5381 10.68 11.182 10.4742C11.5603 11.7752 12.0581 13.1293 12.6754 14.5166C12.0648 15.8972 11.5736 17.2447 11.2019 18.539C10.5447 18.3333 9.9208 18.1076 9.34332 17.862ZM12.9144 27.3472C12.0117 26.8295 11.62 24.8581 11.9254 22.3225C11.9984 21.6986 12.1179 21.0414 12.2639 20.371C13.5649 20.6896 14.9853 20.9352 16.4788 21.0945C17.3749 22.3225 18.3042 23.4376 19.2401 24.4134C17.0762 26.4246 15.0451 27.5264 13.6644 27.5264C13.3657 27.5198 13.1135 27.4601 12.9144 27.3472ZM28.6589 22.2893C28.9709 24.8249 28.5859 26.7963 27.6898 27.3207C27.4907 27.4401 27.2318 27.4932 26.9265 27.4932C25.5525 27.4932 23.5147 26.398 21.3509 24.4001C22.2801 23.4244 23.2094 22.3159 24.0922 21.0879C25.5923 20.9286 27.0128 20.683 28.3138 20.3577C28.4664 21.0282 28.5859 21.672 28.6589 22.2893ZM31.2144 17.862C30.6436 18.1076 30.0196 18.3266 29.3758 18.5324C28.9974 17.2314 28.4996 15.8773 27.8823 14.49C28.493 13.1094 28.9842 11.762 29.3559 10.4676C30.013 10.6734 30.637 10.8991 31.2211 11.1447C33.5708 12.1469 35.0908 13.4612 35.0908 14.5033C35.0842 15.5454 33.5642 16.8663 31.2144 17.862Z" fill="#61DAFB"/>
            <path d="M20.2756 17.5367C21.9509 17.5367 23.309 16.1786 23.309 14.5033C23.309 12.828 21.9509 11.4699 20.2756 11.4699C18.6003 11.4699 17.2422 12.828 17.2422 14.5033C17.2422 16.1786 18.6003 17.5367 20.2756 17.5367Z" fill="#61DAFB"/>
        </g>
        <defs>
            <clipPath id="clip0_4_1371">
                <rect width="41.0131" height="29" fill="white"/>
            </clipPath>
        </defs>
    </symbol>
    <symbol id="flutter" viewBox="0 0 24 30" fill="none" xmlns="http://www.w3.org/2000/svg">
        <path d="M5.4506 18.6134L1.41687 14.5846L14.5157 1.50179H22.5831" fill="#42A5F5" fill-opacity="0.8"/>
        <path d="M22.5831 13.5738H14.5156L11.494 16.5918L15.5277 20.6206" fill="#42A5F5" fill-opacity="0.8"/>
        <path d="M11.494 24.6494L14.5156 27.6674H22.5831L15.5277 20.6206" fill="#0D47A1"/>
        <path d="M11.497 16.6L7.46912 20.623L11.497 24.646L15.5249 20.623L11.497 16.6Z" fill="#42A5F5"/>
        <path d="M15.5249 20.623L11.497 24.646L12.0593 25.2076L16.0872 21.1846L15.5249 20.623Z" fill="url(#paint0_linear_4_1356)"/>
        <path d="M11.494 24.6494L17.4795 22.5845L15.5277 20.6206" fill="url(#paint1_linear_4_1356)"/>
        <defs>
            <linearGradient id="paint0_linear_4_1356" x1="11.497" y1="24.646" x2="12.0586" y2="25.2083" gradientUnits="userSpaceOnUse">
                <stop offset="0.2" stop-opacity="0.15"/>
                <stop offset="0.85" stop-color="#616161" stop-opacity="0.01"/>
            </linearGradient>
            <linearGradient id="paint1_linear_4_1356" x1="11.494" y1="20.6206" x2="17.4795" y2="20.6206" gradientUnits="userSpaceOnUse">
                <stop offset="0.2" stop-opacity="0.55"/>
                <stop offset="0.85" stop-color="#616161" stop-opacity="0.01"/>
            </linearGradient>
        </defs>
    </symbol>
</svg>
